<?xml version="1.0" standalone="no"?>
<!DOCTYPE svg PUBLIC "-//W3C//DTD SVG 20010904//EN"
 "http://www.w3.org/TR/2001/REC-SVG-20010904/DTD/svg10.dtd">
<svg version="1.0" xmlns="http://www.w3.org/2000/svg"
 width="1926.000000pt" height="1167.000000pt" viewBox="0 0 1926.000000 1167.000000"
 preserveAspectRatio="xMidYMid meet">

<g transform="translate(0.000000,1167.000000) scale(0.100000,-0.100000)"
fill="#000000" stroke="none">
<path d="M6510 5835 l0 -5545 2505 0 2505 0 0 2805 0 2805 90 -45 c50 -25 90
-43 90 -40 0 3 -7 19 -15 35 l-15 30 1897 2 c1679 3 1898 5 1898 18 0 13 -219
15 -1897 18 -1044 1 -1898 5 -1898 10 1 4 7 18 15 32 8 14 14 28 15 33 0 4
-40 -13 -90 -38 l-90 -45 0 860 0 860 1895 0 c1316 0 1895 -3 1895 -10 0 -6
-7 -24 -15 -41 l-16 -30 91 46 c49 25 90 47 90 50 0 3 -40 25 -90 50 l-90 45
17 -35 c9 -19 14 -38 10 -41 -3 -4 -857 -3 -1897 1 l-1890 8 0 1853 0 1854
-2505 0 -2505 0 0 -5545z m4970 0 l0 -5505 -2465 0 -2465 0 0 5505 0 5505
2465 0 2465 0 0 -5505z"/>
<path d="M7820 9250 c0 -91 3 -110 15 -110 11 0 15 12 15 45 l0 45 40 0 c74 0
107 67 54 109 -19 15 -41 21 -75 21 l-49 0 0 -110z m110 65 c6 -8 9 -23 5 -35
-5 -16 -15 -20 -46 -20 -38 0 -39 1 -39 35 0 33 2 35 34 35 18 0 39 -7 46 -15z"/>
<path d="M8010 9250 c0 -91 3 -110 15 -110 11 0 15 12 15 45 0 33 4 45 15 45
8 0 26 -20 41 -45 14 -25 32 -45 40 -45 19 0 18 7 -7 46 l-21 34 26 31 c47 55
9 109 -75 109 l-49 0 0 -110z m109 62 c15 -28 -5 -52 -44 -52 -33 0 -35 2 -35
35 0 33 2 35 35 35 23 0 38 -6 44 -18z"/>
<path d="M8228 9340 c-87 -67 -42 -200 66 -200 101 0 143 128 65 194 -38 32
-95 35 -131 6z m121 -36 c36 -46 21 -113 -31 -135 -79 -32 -141 77 -81 143 26
29 87 24 112 -8z"/>
<path d="M8441 9278 c17 -46 36 -96 41 -111 18 -48 39 -28 79 73 42 105 45
120 26 120 -7 0 -25 -36 -41 -80 -15 -44 -32 -82 -36 -85 -4 -2 -21 32 -37 78
-19 54 -35 83 -46 85 -15 3 -12 -9 14 -80z"/>
<path d="M8640 9250 l0 -110 65 0 c51 0 65 3 65 15 0 11 -12 15 -50 15 -49 0
-50 1 -50 30 0 29 2 30 45 30 33 0 45 4 45 15 0 11 -12 15 -45 15 -45 0 -45 0
-45 35 l0 35 50 0 c38 0 50 4 50 15 0 12 -14 15 -65 15 l-65 0 0 -110z"/>
<path d="M8820 9249 l0 -111 62 4 c51 4 65 9 85 32 25 30 32 101 12 138 -14
26 -68 48 -119 48 l-40 0 0 -111z m120 61 c24 -24 27 -86 4 -118 -11 -16 -25
-22 -55 -22 l-39 0 0 80 0 80 35 0 c22 0 43 -8 55 -20z"/>
<path d="M9068 9340 c-87 -67 -42 -200 66 -200 101 0 143 128 65 194 -38 32
-95 35 -131 6z m121 -36 c36 -46 21 -113 -31 -135 -79 -32 -141 77 -81 143 26
29 87 24 112 -8z"/>
<path d="M9280 9251 c0 -92 3 -111 15 -111 11 0 15 12 15 45 0 36 3 45 18 45
10 0 27 -18 42 -45 15 -28 32 -45 43 -45 16 0 16 4 -7 42 l-25 42 25 22 c27
26 31 61 10 89 -10 13 -30 20 -75 23 l-61 4 0 -111z m113 58 c18 -29 1 -49
-43 -49 -39 0 -40 1 -40 36 0 34 1 35 36 32 21 -2 42 -10 47 -19z"/>
<path d="M9550 9251 l0 -111 56 0 c51 0 59 3 91 35 33 33 35 39 30 81 -7 68
-40 96 -117 102 l-60 4 0 -111z m129 53 c45 -57 11 -134 -60 -134 l-39 0 0 80
0 80 39 0 c31 0 44 -6 60 -26z"/>
<path d="M9770 9250 l0 -110 65 0 c51 0 65 3 65 15 0 11 -12 15 -50 15 -49 0
-50 1 -50 30 0 29 2 30 45 30 33 0 45 4 45 15 0 11 -12 15 -45 15 -45 0 -45 0
-45 35 l0 35 50 0 c38 0 50 4 50 15 0 12 -14 15 -65 15 l-65 0 0 -110z"/>
<path d="M7820 8790 c0 -91 3 -110 15 -110 11 0 15 12 15 45 l0 45 40 0 c74 0
107 67 54 109 -19 15 -41 21 -75 21 l-49 0 0 -110z m110 65 c6 -8 9 -23 5 -35
-5 -16 -15 -20 -46 -20 -38 0 -39 1 -39 35 0 33 2 35 34 35 18 0 39 -7 46 -15z"/>
<path d="M8010 8790 l0 -110 65 0 c51 0 65 3 65 15 0 11 -12 15 -50 15 -49 0
-50 1 -50 30 0 29 2 30 45 30 33 0 45 4 45 15 0 11 -12 15 -45 15 -45 0 -45 0
-45 35 l0 35 50 0 c38 0 50 4 50 15 0 12 -14 15 -65 15 l-65 0 0 -110z"/>
<path d="M8190 8790 c0 -90 3 -110 15 -110 11 0 15 18 17 82 l3 82 54 -82 c29
-45 60 -82 67 -82 11 0 14 24 14 111 0 84 -3 110 -12 107 -9 -3 -14 -31 -16
-82 l-3 -78 -52 81 c-75 116 -87 112 -87 -29z"/>
<path d="M8431 8874 c-12 -15 -21 -32 -21 -38 0 -23 25 -46 64 -59 52 -18 68
-43 42 -63 -28 -20 -44 -18 -71 12 -21 23 -26 24 -31 10 -19 -50 98 -80 130
-34 9 12 16 32 16 45 0 23 -34 53 -61 53 -9 0 -27 9 -40 20 l-24 20 24 20 c29
25 36 25 62 -1 14 -14 24 -18 31 -11 17 17 -28 52 -66 52 -25 0 -40 -7 -55
-26z"/>
<path d="M8627 8808 c-20 -51 -39 -101 -43 -110 -4 -12 -1 -18 9 -18 8 0 20
14 26 30 9 28 13 30 59 30 46 0 51 -2 62 -30 13 -32 47 -44 36 -12 -52 140
-81 202 -96 202 -12 0 -27 -27 -53 -92z m68 16 c21 -50 20 -54 -19 -54 l-34 0
17 45 c9 25 17 45 18 45 2 0 10 -16 18 -36z"/>
<path d="M8820 8790 c0 -67 4 -110 10 -110 6 0 10 34 10 82 0 45 3 78 7 75 3
-4 21 -40 38 -80 17 -39 38 -73 46 -75 11 -2 27 23 52 80 l36 83 1 -82 c0 -67
3 -83 15 -83 12 0 15 19 15 111 0 106 -1 110 -21 107 -15 -2 -30 -24 -56 -85
-19 -46 -39 -81 -43 -78 -4 2 -22 41 -41 85 -24 59 -38 80 -51 80 -16 0 -18
-10 -18 -110z"/>
<path d="M9110 8791 c0 -93 2 -111 15 -111 13 0 15 16 13 107 -2 74 -7 108
-15 111 -10 3 -13 -23 -13 -107z"/>
<path d="M9190 8790 l0 -110 65 0 c51 0 65 3 65 15 0 11 -12 15 -50 15 -49 0
-50 1 -50 29 0 28 2 30 47 33 66 4 70 28 4 28 l-51 0 0 35 0 35 50 0 c38 0 50
4 50 15 0 12 -14 15 -65 15 l-65 0 0 -110z"/>
<path d="M9370 8790 c0 -90 3 -110 15 -110 11 0 15 19 17 88 l3 87 55 -87 c78
-123 90 -120 90 22 0 90 -3 110 -15 110 -11 0 -15 -18 -17 -82 l-3 -82 -54 82
c-35 54 -60 82 -72 82 -17 0 -19 -9 -19 -110z"/>
<path d="M9580 8885 c0 -11 10 -15 35 -15 l35 0 0 -95 c0 -78 3 -95 15 -95 12
0 15 17 15 95 l0 95 41 0 c28 0 39 4 37 13 -3 8 -33 13 -91 15 -73 2 -87 0
-87 -13z"/>
<path d="M9830 8893 c-52 -19 -80 -91 -56 -146 18 -45 51 -67 99 -67 49 0 73
13 92 50 51 98 -34 200 -135 163z m100 -45 c26 -28 27 -88 1 -119 -25 -31 -83
-32 -113 -2 -30 30 -29 100 2 125 31 25 84 23 110 -4z"/>
<path d="M7820 8330 l0 -110 50 0 c87 0 130 34 130 104 0 76 -46 116 -134 116
l-46 0 0 -110z m127 58 c16 -15 23 -33 23 -60 0 -51 -27 -78 -80 -78 l-40 0 0
80 0 80 37 0 c24 0 45 -8 60 -22z"/>
<path d="M8050 8330 l0 -110 65 0 c51 0 65 3 65 15 0 11 -12 15 -50 15 -49 0
-50 1 -50 29 0 28 3 30 42 33 59 4 63 28 4 28 -46 0 -46 0 -46 35 l0 35 50 0
c38 0 50 4 50 15 0 12 -14 15 -65 15 l-65 0 0 -110z"/>
<path d="M8300 8330 l0 -110 65 0 c51 0 65 3 65 15 0 11 -12 15 -50 15 l-50 0
0 95 c0 78 -3 95 -15 95 -12 0 -15 -19 -15 -110z"/>
<path d="M8470 8330 l0 -110 65 0 c51 0 65 3 65 15 0 11 -12 15 -50 15 -49 0
-50 1 -50 30 0 29 2 30 45 30 33 0 45 4 45 15 0 11 -12 15 -45 15 -45 0 -45 0
-45 35 l0 35 50 0 c38 0 50 4 50 15 0 12 -14 15 -65 15 l-65 0 0 -110z"/>
<path d="M8650 8330 c0 -91 3 -110 15 -110 12 0 15 16 15 88 l0 87 58 -87 c36
-55 64 -88 75 -88 16 0 17 10 15 107 -2 72 -7 108 -15 110 -9 3 -13 -19 -15
-79 l-3 -83 -54 83 c-35 54 -60 82 -72 82 -17 0 -19 -9 -19 -110z"/>
<path d="M8924 8429 c-28 -14 -54 -61 -54 -99 0 -38 24 -86 49 -100 27 -14 94
-13 110 3 11 10 14 10 18 0 11 -31 23 -9 23 42 l0 55 -50 0 c-38 0 -50 -4 -50
-15 0 -10 11 -15 35 -15 42 0 47 -22 10 -46 -31 -20 -79 -11 -100 19 -21 30
-19 80 6 111 26 33 79 36 109 6 11 -11 25 -20 30 -20 17 0 11 20 -15 45 -26
27 -81 33 -121 14z"/>
<path d="M9113 8424 c-3 -8 -3 -49 -1 -90 6 -90 23 -114 80 -114 64 0 78 23
78 130 0 73 -3 90 -15 90 -12 0 -15 -16 -15 -84 0 -64 -4 -88 -16 -100 -21
-21 -40 -20 -64 4 -17 17 -20 33 -20 100 0 75 -12 103 -27 64z"/>
<path d="M9335 8339 c-22 -56 -41 -106 -43 -110 -2 -5 4 -9 13 -9 9 0 21 13
26 30 10 28 14 30 60 30 47 0 51 -2 60 -30 6 -16 17 -30 25 -30 20 0 19 3 -27
118 -29 71 -46 102 -58 102 -11 0 -28 -30 -56 -101z m78 14 l17 -43 -35 0
c-19 0 -35 4 -35 9 0 12 31 84 34 80 1 -2 10 -23 19 -46z"/>
<path d="M9610 8351 c0 -69 -4 -92 -16 -102 -20 -16 -48 -1 -52 30 -5 29 -32
27 -32 -2 0 -51 78 -77 113 -39 24 26 25 202 2 202 -12 0 -15 -17 -15 -89z"/>
<path d="M9700 8330 l0 -110 65 0 c51 0 65 3 65 15 0 11 -12 15 -50 15 -49 0
-50 1 -50 29 0 28 3 30 42 33 59 4 63 28 4 28 -46 0 -46 0 -46 35 l0 35 50 0
c38 0 50 4 50 15 0 12 -14 15 -65 15 l-65 0 0 -110z"/>
<path d="M7820 7860 c0 -90 3 -110 15 -110 11 0 15 19 17 87 l3 86 58 -86 c78
-118 87 -116 87 23 0 91 -3 110 -15 110 -12 0 -15 -16 -15 -82 l0 -83 -55 83
c-38 57 -61 82 -75 82 -19 0 -20 -7 -20 -110z"/>
<path d="M8113 7953 c-4 -10 -22 -56 -40 -103 -37 -95 -38 -100 -20 -100 7 0
18 14 24 30 10 28 15 30 60 30 45 0 49 -2 60 -30 6 -16 18 -30 27 -30 14 0 13
8 -6 58 -42 113 -67 162 -83 162 -8 0 -19 -8 -22 -17z m51 -90 c7 -21 4 -23
-28 -23 l-35 0 16 46 c16 46 16 46 28 23 7 -13 16 -34 19 -46z"/>
<path d="M8230 7955 c0 -10 11 -15 35 -15 l35 0 0 -95 c0 -78 3 -95 15 -95 12
0 15 17 15 95 l0 95 35 0 c24 0 35 5 35 15 0 12 -16 15 -85 15 -69 0 -85 -3
-85 -15z"/>
<path d="M8430 7886 c0 -104 19 -136 80 -136 61 0 80 32 80 136 0 68 -3 84
-15 84 -12 0 -15 -16 -15 -83 0 -72 -3 -87 -21 -103 -19 -17 -23 -17 -47 -3
-26 14 -27 19 -30 102 -2 68 -6 87 -17 87 -12 0 -15 -17 -15 -84z"/>
<path d="M8640 7860 c0 -91 3 -110 15 -110 11 0 15 12 15 45 0 37 3 45 18 45
11 0 26 -16 40 -45 12 -25 29 -45 37 -45 19 0 18 7 -4 50 -19 35 -19 35 5 57
31 28 30 57 -1 88 -19 20 -34 25 -75 25 l-50 0 0 -110z m111 64 c20 -24 -1
-48 -45 -52 -35 -3 -36 -2 -36 32 0 34 2 36 34 36 18 0 39 -7 47 -16z"/>
<path d="M8883 7953 c-4 -10 -22 -56 -40 -103 -37 -95 -38 -100 -20 -100 7 0
18 14 24 30 10 28 15 30 60 30 45 0 49 -2 60 -30 6 -16 18 -30 27 -30 14 0 13
8 -6 58 -42 113 -67 162 -83 162 -8 0 -19 -8 -22 -17z m51 -90 c7 -21 4 -23
-28 -23 l-35 0 16 46 c16 46 16 46 28 23 7 -13 16 -34 19 -46z"/>
<path d="M9040 7860 l0 -110 71 0 c52 0 70 3 67 13 -3 7 -26 13 -56 15 l-52 3
0 95 c0 77 -3 94 -15 94 -12 0 -15 -19 -15 -110z"/>
<path d="M7455 5918 c-3 -7 -4 -814 -3 -1793 l3 -1780 1560 0 1560 0 0 1790 0
1790 -1558 3 c-1241 2 -1559 0 -1562 -10z m3085 -1783 l0 -1755 -1525 0 -1525
0 0 1755 0 1755 1525 0 1525 0 0 -1755z"/>
<path d="M7854 4252 c-48 -39 -60 -119 -24 -165 23 -29 77 -48 112 -40 28 7
68 42 68 60 0 18 -27 16 -34 -2 -9 -24 -51 -36 -84 -24 -80 28 -61 159 23 159
32 0 65 -21 65 -40 0 -5 7 -7 15 -4 23 9 18 30 -11 53 -33 26 -100 28 -130 3z"/>
<path d="M8050 4160 c0 -103 1 -110 20 -110 17 0 20 7 20 50 l0 50 50 0 50 0
0 -50 c0 -43 3 -50 20 -50 19 0 20 7 20 111 0 100 -2 110 -17 107 -13 -2 -19
-15 -21 -46 l-3 -42 -50 0 -49 0 0 45 c0 38 -3 45 -20 45 -19 0 -20 -7 -20
-110z"/>
<path d="M8301 4168 c-23 -57 -41 -106 -41 -110 0 -21 29 -4 40 22 11 27 17
30 60 30 44 0 49 -2 59 -30 5 -16 17 -30 25 -30 22 0 21 2 -25 118 -31 76 -46
102 -59 102 -13 0 -28 -26 -59 -102z m73 28 c3 -13 9 -31 12 -40 5 -13 -1 -16
-25 -16 -34 0 -36 3 -20 49 13 37 25 40 33 7z"/>
<path d="M8450 4255 c0 -10 11 -15 35 -15 l35 0 0 -95 c0 -77 3 -95 15 -95 11
0 15 19 17 93 l3 92 38 3 c24 2 37 8 37 18 0 11 -18 14 -90 14 -73 0 -90 -3
-90 -15z"/>
<path d="M8660 4161 l0 -111 53 0 c40 0 58 5 70 18 21 23 22 65 2 82 -12 10
-12 15 2 36 15 24 15 27 -4 52 -16 22 -29 28 -72 30 l-51 3 0 -110z m99 55 c4
-22 -23 -46 -51 -46 -14 0 -18 8 -18 36 0 34 1 35 32 32 23 -2 34 -9 37 -22z
m5 -86 c17 -17 -8 -45 -43 -48 -30 -3 -31 -2 -31 34 0 36 1 36 32 30 18 -3 37
-11 42 -16z"/>
<path d="M8881 4256 c-74 -41 -65 -169 14 -202 45 -18 87 -9 122 28 23 24 28
38 28 79 0 44 -4 54 -33 80 -36 32 -89 38 -131 15z m109 -36 c30 -30 30 -93 0
-124 -28 -29 -78 -25 -107 8 -29 34 -30 75 -2 110 26 33 79 36 109 6z"/>
<path d="M9117 4250 c-31 -25 -51 -80 -42 -119 7 -34 50 -76 87 -85 35 -8 90
14 112 45 9 14 16 43 16 70 0 40 -5 53 -31 78 -38 38 -101 43 -142 11z m122
-36 c27 -34 27 -84 1 -112 -20 -22 -35 -26 -75 -23 -52 5 -75 101 -35 141 30
30 83 27 109 -6z"/>
<path d="M9300 4255 c0 -10 11 -15 35 -15 l35 0 0 -95 c0 -88 1 -95 20 -95 19
0 20 7 20 95 l0 95 35 0 c24 0 35 5 35 15 0 12 -17 15 -90 15 -73 0 -90 -3
-90 -15z"/>
<path d="M9472 4138 c3 -7 23 -14 46 -16 33 -2 42 0 42 12 0 12 -11 16 -46 16
-32 0 -44 -4 -42 -12z"/>
<path d="M7800 3803 c0 -4 14 -53 30 -107 17 -55 30 -101 30 -103 0 -1 8 -3
18 -3 14 0 23 18 41 80 13 44 26 78 30 75 4 -2 18 -38 31 -79 18 -58 28 -76
42 -76 10 0 18 1 18 3 0 1 13 49 30 106 16 58 28 107 25 109 -15 15 -35 -16
-50 -77 -9 -39 -20 -71 -24 -71 -4 0 -18 34 -31 75 -18 57 -28 75 -42 75 -13
0 -23 -18 -39 -75 -12 -41 -25 -75 -29 -75 -4 0 -16 33 -27 72 -13 50 -25 74
-36 76 -9 2 -17 0 -17 -5z"/>
<path d="M8130 3700 l0 -110 70 0 c56 0 70 3 70 15 0 12 -13 15 -55 15 -54 0
-55 0 -55 29 0 28 2 30 47 33 64 4 69 26 6 30 -46 3 -48 4 -51 36 l-3 32 55 0
c43 0 56 3 56 15 0 12 -14 15 -70 15 l-70 0 0 -110z"/>
<path d="M8310 3700 l0 -110 53 0 c40 0 58 5 70 18 21 23 22 65 2 82 -13 11
-13 14 0 27 21 20 19 49 -5 73 -15 15 -33 20 -70 20 l-50 0 0 -110z m98 49 c2
-20 -2 -28 -20 -33 -42 -11 -48 -7 -48 30 0 34 1 35 33 32 26 -2 33 -8 35 -29z
m-13 -69 c20 -7 26 -16 23 -33 -2 -18 -10 -23 -40 -25 -37 -3 -38 -3 -38 32 0
39 9 43 55 26z"/>
<path d="M17010 8669 c-494 -31 -885 -170 -990 -351 l-30 -53 3 -1215 2 -1215
27 -47 c93 -158 377 -274 818 -334 174 -24 585 -24 765 0 486 64 780 198 843
385 9 25 12 349 12 1226 l0 1193 -22 39 c-34 58 -58 85 -112 127 -175 133
-495 219 -916 246 -181 11 -215 11 -400 -1z m620 -153 c305 -43 540 -125 643
-224 20 -20 37 -44 37 -53 0 -28 -90 -99 -176 -140 -228 -106 -507 -153 -909
-154 -341 0 -581 32 -794 107 -156 54 -291 143 -291 191 0 29 65 84 150 127
139 70 351 126 565 149 55 6 116 13 135 15 79 9 540 -3 640 -18z m690 -1556
l0 -1089 -32 -37 c-93 -106 -304 -186 -623 -236 -121 -19 -180 -22 -440 -22
-266 -1 -316 2 -444 22 -325 52 -570 148 -631 246 -20 33 -20 44 -20 1115 0
594 2 1081 5 1081 3 0 26 -13 53 -29 101 -63 320 -132 517 -165 325 -53 721
-54 1030 -1 235 40 471 120 560 189 11 8 21 16 23 16 1 0 2 -490 2 -1090z"/>
<path d="M16670 7223 c-52 -19 -80 -91 -56 -146 18 -45 51 -67 99 -67 49 0 73
13 92 50 50 97 -35 200 -135 163z m100 -45 c25 -27 27 -88 3 -117 -49 -59
-136 -22 -136 57 0 56 24 82 74 82 26 0 45 -7 59 -22z"/>
<path d="M16870 7120 c0 -91 3 -110 15 -110 11 0 15 12 15 45 0 59 20 60 52 3
13 -24 32 -44 42 -46 17 -4 17 0 -7 41 l-25 46 24 16 c18 11 24 25 24 50 0 44
-29 65 -92 65 l-48 0 0 -110z m98 71 c8 -4 12 -19 10 -32 -2 -20 -10 -25 -40
-27 -37 -3 -38 -3 -38 32 0 33 3 36 28 36 15 0 33 -4 40 -9z"/>
<path d="M17111 7213 c-9 -18 -81 -194 -81 -200 0 -2 7 -3 16 -3 8 0 20 14 25
30 10 28 14 30 60 30 47 0 51 -2 60 -30 6 -16 17 -30 25 -30 20 0 19 3 -27
118 -41 101 -59 120 -78 85z m42 -70 l17 -43 -35 0 c-19 0 -35 4 -35 9 0 12
31 84 34 80 1 -2 10 -23 19 -46z"/>
<path d="M17305 7218 c-38 -20 -55 -51 -55 -101 0 -40 5 -53 29 -78 40 -39
109 -41 146 -4 14 13 25 29 25 35 0 18 -27 11 -42 -12 -11 -16 -25 -22 -53
-22 -48 0 -75 31 -75 85 0 50 27 79 75 79 23 0 41 -7 52 -20 29 -34 57 -24 30
11 -28 37 -91 50 -132 27z"/>
<path d="M17490 7120 l0 -110 65 0 c51 0 65 3 65 15 0 11 -12 15 -50 15 l-50
0 0 95 c0 78 -3 95 -15 95 -12 0 -15 -19 -15 -110z"/>
<path d="M17660 7120 l0 -110 65 0 c51 0 65 3 65 15 0 11 -12 15 -50 15 -49 0
-50 1 -50 30 0 29 2 30 45 30 33 0 45 4 45 15 0 11 -12 15 -45 15 -45 0 -45 0
-45 35 l0 35 50 0 c38 0 50 4 50 15 0 12 -14 15 -65 15 l-65 0 0 -110z"/>
<path d="M16620 6660 l0 -110 54 0 c44 0 60 5 85 26 38 31 48 78 28 127 -19
44 -61 67 -122 67 l-45 0 0 -110z m121 61 c18 -14 24 -29 24 -59 0 -54 -26
-82 -77 -82 l-38 0 0 80 0 80 34 0 c19 0 44 -9 57 -19z"/>
<path d="M16891 6753 c-9 -18 -81 -194 -81 -200 0 -2 7 -3 16 -3 8 0 20 14 25
30 10 28 14 30 60 30 47 0 51 -2 60 -30 6 -16 17 -30 25 -30 20 0 19 3 -27
118 -41 101 -59 120 -78 85z m42 -70 l17 -43 -35 0 c-19 0 -35 4 -35 9 0 12
31 84 34 80 1 -2 10 -23 19 -46z"/>
<path d="M17000 6755 c0 -11 10 -15 35 -15 l35 0 0 -95 c0 -78 3 -95 15 -95
12 0 15 17 15 95 l0 95 41 0 c28 0 39 4 37 13 -3 8 -33 13 -91 15 -73 2 -87 0
-87 -13z"/>
<path d="M17243 6753 c-3 -10 -21 -56 -39 -102 -38 -95 -39 -101 -21 -101 7 0
18 14 24 30 10 28 15 30 61 30 47 0 51 -2 61 -30 5 -16 17 -30 25 -30 12 0 11
12 -10 68 -44 117 -62 152 -79 152 -8 0 -18 -8 -22 -17z m51 -90 c7 -21 4 -23
-29 -23 -31 0 -36 3 -30 18 4 9 12 30 17 46 l11 29 12 -24 c7 -13 16 -34 19
-46z"/>
<path d="M17400 6661 l0 -112 56 3 c49 3 60 7 77 30 l21 28 -21 28 c-17 23
-18 29 -7 40 18 16 18 43 0 67 -9 13 -30 20 -70 23 l-56 4 0 -111z m101 63
c19 -23 -1 -48 -40 -52 -30 -3 -31 -2 -31 32 0 33 2 36 29 36 16 0 34 -7 42
-16z m3 -90 c25 -25 4 -54 -39 -54 -33 0 -35 2 -35 35 0 32 2 35 29 35 16 0
37 -7 45 -16z"/>
<path d="M17607 6678 c-20 -51 -39 -101 -43 -110 -4 -12 -1 -18 9 -18 8 0 20
14 26 30 9 28 13 30 59 30 46 0 51 -2 62 -30 13 -32 47 -44 36 -12 -52 140
-81 202 -96 202 -12 0 -27 -27 -53 -92z m69 17 c20 -49 18 -55 -20 -55 l-34 0
17 45 c9 25 17 45 19 45 2 0 10 -16 18 -35z"/>
<path d="M17812 6754 c-23 -16 -29 -57 -13 -82 4 -7 28 -19 52 -26 48 -14 63
-42 35 -65 -21 -18 -67 -5 -73 20 -6 20 -24 21 -30 2 -8 -23 36 -53 75 -53 45
0 72 23 72 62 0 30 -14 44 -66 62 -44 15 -56 42 -28 63 24 17 30 17 55 -8 14
-14 24 -18 31 -11 15 15 -27 52 -60 52 -15 0 -38 -7 -50 -16z"/>
<path d="M17980 6660 l0 -110 65 0 c51 0 65 3 65 15 0 11 -12 15 -50 15 -49 0
-50 1 -50 29 0 28 3 30 42 33 59 4 63 28 4 28 -46 0 -46 0 -46 35 l0 35 50 0
c38 0 50 4 50 15 0 12 -14 15 -65 15 l-65 0 0 -110z"/>
<path d="M295 8358 c-3 -7 -4 -832 -3 -1833 l3 -1820 1079 -3 c789 -1 1082 1
1092 9 12 9 14 99 14 490 l0 479 85 -46 c47 -25 85 -43 85 -39 0 3 -7 19 -15
35 l-15 30 1937 2 c1836 3 1938 4 1941 21 3 16 -94 17 -1938 17 l-1941 0 16
31 c9 17 14 33 12 36 -3 2 -41 -14 -86 -36 l-81 -41 0 955 0 955 1930 0 c1341
0 1930 -3 1930 -10 0 -6 -7 -24 -15 -41 l-16 -30 91 46 c49 25 90 47 90 50 0
3 -40 25 -90 50 l-90 45 17 -35 c9 -19 15 -36 12 -39 -2 -2 -871 -1 -1931 2
l-1928 5 -2 361 -3 361 -1088 3 c-865 2 -1089 0 -1092 -10z m2145 -1823 l0
-1795 -1055 0 -1055 0 0 1795 0 1795 1055 0 1055 0 0 -1795z"/>
<path d="M884 6862 c-48 -39 -60 -119 -24 -165 23 -29 77 -48 112 -40 28 7 68
42 68 60 0 18 -27 16 -34 -2 -9 -24 -51 -36 -84 -24 -80 28 -60 159 24 159 22
0 40 -7 51 -20 20 -23 43 -26 43 -6 0 47 -112 74 -156 38z"/>
<path d="M1080 6770 l0 -110 70 0 c56 0 70 3 70 15 0 12 -13 15 -55 15 l-55 0
0 95 c0 78 -3 95 -15 95 -12 0 -15 -19 -15 -110z"/>
<path d="M1250 6770 c0 -91 3 -110 15 -110 12 0 15 19 15 110 0 91 -3 110 -15
110 -12 0 -15 -19 -15 -110z"/>
<path d="M1340 6770 l0 -110 65 0 c51 0 65 3 65 15 0 11 -12 15 -50 15 -49 0
-50 1 -50 30 0 29 2 30 45 30 33 0 45 4 45 15 0 11 -12 15 -45 15 -45 0 -45 0
-45 35 l0 35 50 0 c38 0 50 4 50 15 0 12 -14 15 -65 15 l-65 0 0 -110z"/>
<path d="M1520 6770 c0 -90 3 -110 15 -110 11 0 15 18 17 82 l3 82 54 -82 c35
-54 60 -82 72 -82 17 0 19 9 19 110 0 90 -3 110 -15 110 -11 0 -15 -18 -17
-82 l-3 -82 -54 82 c-35 54 -60 82 -72 82 -17 0 -19 -9 -19 -110z"/>
<path d="M1727 6873 c-16 -15 -5 -23 33 -23 l40 0 0 -95 c0 -78 3 -95 15 -95
12 0 15 17 15 95 l0 95 35 0 c24 0 35 5 35 15 0 12 -16 15 -83 15 -46 0 -87
-3 -90 -7z"/>
</g>
</svg>
