<?xml version="1.0" standalone="no"?>
<!DOCTYPE svg PUBLIC "-//W3C//DTD SVG 20010904//EN"
 "http://www.w3.org/TR/2001/REC-SVG-20010904/DTD/svg10.dtd">
<svg version="1.0" xmlns="http://www.w3.org/2000/svg"
 width="1926.000000pt" height="960.000000pt" viewBox="0 0 1926.000000 960.000000"
 preserveAspectRatio="xMidYMid meet">

<g transform="translate(0.000000,960.000000) scale(0.100000,-0.100000)"
fill="#000000" stroke="none">
<path d="M1270 9045 c0 -96 3 -115 15 -115 12 0 15 19 15 115 0 96 -3 115 -15
115 -12 0 -15 -19 -15 -115z"/>
<path d="M1360 9045 c0 -96 3 -115 15 -115 12 0 15 17 15 93 l0 92 61 -92 c41
-62 68 -93 80 -93 17 0 19 10 19 115 0 108 -1 115 -20 115 -17 0 -19 -8 -22
-82 l-3 -83 -53 83 c-37 57 -59 82 -72 82 -19 0 -20 -7 -20 -115z"/>
<path d="M1580 9145 c0 -11 11 -15 40 -15 l40 0 0 -100 c0 -82 3 -100 15 -100
12 0 15 18 15 100 l0 100 35 0 c24 0 35 5 35 15 0 12 -17 15 -90 15 -73 0 -90
-3 -90 -15z"/>
<path d="M1800 9045 l0 -115 70 0 c56 0 70 3 70 15 0 12 -13 15 -55 15 l-55 0
0 35 0 35 50 0 c38 0 50 4 50 15 0 11 -12 15 -50 15 l-50 0 0 35 0 35 55 0
c42 0 55 3 55 15 0 12 -14 15 -70 15 l-70 0 0 -115z"/>
<path d="M1980 9045 c0 -108 1 -115 20 -115 17 0 20 7 20 45 0 36 3 45 18 45
10 0 27 -18 41 -45 15 -29 30 -45 43 -45 17 0 17 3 -8 45 l-26 45 26 21 c32
25 35 70 6 99 -16 16 -33 20 -80 20 l-60 0 0 -115z m118 73 c30 -30 1 -68 -52
-68 -24 0 -26 4 -26 40 0 39 1 40 33 40 18 0 38 -5 45 -12z"/>
<path d="M2190 9045 c0 -96 3 -115 15 -115 11 0 15 12 15 50 l0 50 51 0 c66 0
62 24 -4 28 -46 3 -47 4 -47 38 l0 34 55 0 c42 0 55 3 55 15 0 12 -14 15 -70
15 l-70 0 0 -115z"/>
<path d="M2373 9053 c-48 -121 -48 -123 -29 -123 8 0 19 14 25 30 9 28 13 30
65 30 51 0 55 -2 65 -30 5 -16 17 -30 25 -30 9 0 16 1 16 3 0 2 -20 52 -44
112 -59 148 -68 149 -123 8z m91 -11 c7 -20 4 -22 -28 -22 -41 0 -44 9 -20 66
l16 38 13 -30 c7 -17 16 -40 19 -52z"/>
<path d="M2597 9140 c-37 -29 -52 -83 -38 -131 16 -52 53 -79 108 -79 36 0 50
6 75 31 25 25 28 33 17 39 -9 6 -20 2 -34 -14 -27 -31 -48 -37 -86 -24 -70 24
-73 135 -3 164 38 16 61 11 89 -22 14 -16 25 -20 34 -14 11 6 8 14 -17 39 -25
25 -39 31 -75 31 -29 0 -53 -7 -70 -20z"/>
<path d="M2810 9045 l0 -115 70 0 c56 0 70 3 70 15 0 12 -13 15 -55 15 l-55 0
0 35 0 35 50 0 c38 0 50 4 50 15 0 11 -12 15 -50 15 l-50 0 0 35 0 35 55 0
c42 0 55 3 55 15 0 12 -14 15 -70 15 l-70 0 0 -115z"/>
<path d="M9550 9140 c-42 -42 -19 -88 55 -112 45 -15 58 -44 29 -65 -26 -19
-42 -16 -71 13 -33 33 -52 18 -23 -19 17 -22 30 -27 64 -27 51 0 76 22 76 68
0 35 -7 41 -70 62 -49 16 -61 38 -35 64 22 21 41 20 65 -4 23 -23 40 -26 40
-7 0 45 -93 64 -130 27z"/>
<path d="M9730 9045 l0 -115 70 0 c56 0 70 3 70 15 0 12 -13 15 -55 15 l-55 0
0 35 0 35 50 0 c38 0 50 4 50 15 0 11 -12 15 -50 15 l-50 0 0 35 0 35 55 0
c42 0 55 3 55 15 0 12 -14 15 -70 15 l-70 0 0 -115z"/>
<path d="M9920 9045 c0 -96 3 -115 15 -115 11 0 15 12 15 45 0 38 3 45 20 45
13 0 27 -14 40 -40 19 -38 44 -59 56 -48 2 3 -7 26 -21 51 -26 45 -26 45 -5
52 45 14 45 91 1 114 -11 6 -42 11 -70 11 l-51 0 0 -115z m104 79 c19 -7 21
-45 4 -62 -7 -7 -27 -12 -45 -12 -32 0 -33 1 -33 40 0 38 2 40 29 40 16 0 36
-3 45 -6z"/>
<path d="M10117 9093 c14 -38 32 -87 40 -111 14 -40 36 -62 49 -49 3 2 25 55
49 116 36 93 40 111 26 111 -12 0 -26 -26 -50 -91 -19 -49 -37 -87 -41 -82 -4
4 -20 45 -36 91 -21 60 -33 82 -46 82 -15 0 -14 -7 9 -67z"/>
<path d="M10330 9045 l0 -115 70 0 c56 0 70 3 70 15 0 12 -13 15 -55 15 l-55
0 0 35 0 35 50 0 c38 0 50 4 50 15 0 11 -12 15 -50 15 l-50 0 0 35 0 35 55 0
c42 0 55 3 55 15 0 12 -14 15 -70 15 l-70 0 0 -115z"/>
<path d="M10520 9045 c0 -96 3 -115 15 -115 11 0 15 12 15 45 0 38 3 45 20 45
13 0 27 -14 40 -40 19 -38 44 -59 56 -48 2 3 -7 26 -21 51 -26 45 -26 45 -5
52 45 14 45 91 1 114 -11 6 -42 11 -70 11 l-51 0 0 -115z m104 79 c19 -7 21
-45 4 -62 -7 -7 -27 -12 -45 -12 -32 0 -33 1 -33 40 0 38 2 40 29 40 16 0 36
-3 45 -6z"/>
<path d="M10731 9134 c-12 -15 -21 -33 -21 -41 0 -22 47 -63 73 -63 45 0 65
-50 28 -70 -29 -15 -40 -13 -67 17 -33 36 -54 18 -23 -21 18 -23 27 -27 67
-24 35 2 49 9 65 30 34 46 6 85 -74 102 -34 7 -44 34 -23 57 22 24 35 24 67
-1 30 -24 37 -25 37 -7 0 24 -36 47 -73 47 -27 0 -41 -7 -56 -26z"/>
<path d="M10910 9045 c0 -96 3 -115 15 -115 12 0 15 19 15 115 0 96 -3 115
-15 115 -12 0 -15 -19 -15 -115z"/>
<path d="M11000 9045 l0 -115 55 0 c93 0 135 36 135 115 0 77 -44 115 -134
115 l-56 0 0 -115z m139 59 c12 -15 21 -41 21 -59 0 -50 -33 -85 -81 -85 l-39
0 0 85 0 85 39 0 c31 0 44 -6 60 -26z"/>
<path d="M11240 9045 l0 -115 70 0 c56 0 70 3 70 15 0 12 -13 15 -55 15 l-55
0 0 35 0 35 50 0 c38 0 50 4 50 15 0 11 -12 15 -50 15 l-50 0 0 35 0 35 55 0
c42 0 55 3 55 15 0 12 -14 15 -70 15 l-70 0 0 -115z"/>
<path d="M16350 9045 l0 -115 49 0 c27 0 61 4 75 10 33 12 66 66 66 105 0 39
-33 93 -66 105 -14 6 -48 10 -75 10 l-49 0 0 -115z m120 75 c28 -15 43 -69 29
-108 -13 -38 -35 -52 -83 -52 l-36 0 0 85 0 85 36 0 c19 0 44 -4 54 -10z"/>
<path d="M16631 9138 c-5 -13 -25 -63 -45 -112 -20 -50 -36 -91 -36 -93 0 -2
7 -3 16 -3 9 0 21 14 27 30 11 28 15 30 65 30 50 0 54 -2 63 -30 7 -18 18 -30
29 -30 16 0 12 14 -28 115 -35 88 -50 115 -64 115 -10 0 -22 -10 -27 -22z m44
-54 c23 -55 20 -64 -20 -64 -19 0 -35 1 -35 3 0 9 32 97 36 97 2 0 11 -16 19
-36z"/>
<path d="M16750 9145 c0 -11 11 -15 40 -15 l40 0 0 -100 c0 -82 3 -100 15
-100 12 0 15 18 15 100 l0 100 40 0 c29 0 40 4 40 15 0 12 -17 15 -95 15 -78
0 -95 -3 -95 -15z"/>
<path d="M16988 9131 c-30 -27 -33 -35 -33 -86 0 -51 3 -59 33 -86 25 -23 42
-29 77 -29 35 0 52 6 77 29 30 27 33 35 33 86 0 51 -3 59 -33 86 -25 23 -42
29 -77 29 -35 0 -52 -6 -77 -29z m139 -23 c12 -13 18 -36 18 -64 0 -56 -29
-88 -80 -88 -51 0 -80 32 -80 88 0 29 6 51 19 64 31 35 91 35 123 0z"/>
<path d="M17237 9142 c-20 -22 -22 -75 -4 -90 6 -5 31 -15 53 -21 58 -16 71
-62 21 -75 -22 -6 -67 17 -67 34 0 6 -7 10 -15 10 -8 0 -15 -9 -15 -19 0 -48
101 -70 140 -31 42 42 19 88 -55 112 -50 16 -60 51 -21 70 23 10 29 8 51 -12
18 -17 28 -21 36 -13 8 8 5 17 -10 32 -27 27 -91 29 -114 3z"/>
<path d="M450 8550 l0 -30 90 0 90 0 0 30 0 30 -90 0 -90 0 0 -30z"/>
<path d="M810 8550 l0 -30 90 0 90 0 0 30 0 30 -90 0 -90 0 0 -30z"/>
<path d="M1170 8550 l0 -30 90 0 90 0 0 30 0 30 -90 0 -90 0 0 -30z"/>
<path d="M1530 8550 l0 -30 90 0 90 0 0 30 0 30 -90 0 -90 0 0 -30z"/>
<path d="M1886 8558 c-3 -13 -6 -26 -6 -30 0 -5 43 -8 95 -8 l95 0 0 30 0 30
-89 0 c-84 0 -89 -1 -95 -22z"/>
<path d="M2246 8558 c-3 -13 -6 -26 -6 -30 0 -5 43 -8 95 -8 l95 0 0 30 0 30
-89 0 c-84 0 -89 -1 -95 -22z"/>
<path d="M2606 8558 c-3 -13 -6 -26 -6 -30 0 -5 43 -8 95 -8 l95 0 0 30 0 30
-89 0 c-84 0 -89 -1 -95 -22z"/>
<path d="M2966 8558 c-3 -13 -6 -26 -6 -30 0 -5 43 -8 95 -8 l95 0 0 30 0 30
-89 0 c-84 0 -89 -1 -95 -22z"/>
<path d="M3329 8578 c0 -2 -3 -15 -5 -30 l-5 -28 96 0 95 0 0 30 0 30 -90 0
c-49 0 -90 -1 -91 -2z"/>
<path d="M3687 8573 c-4 -3 -7 -17 -7 -30 0 -21 5 -23 45 -23 25 0 61 -6 79
-14 32 -13 36 -13 56 9 l21 23 -44 21 c-42 20 -135 29 -150 14z"/>
<path d="M8130 8550 l0 -30 90 0 90 0 0 30 0 30 -90 0 -90 0 0 -30z"/>
<path d="M8490 8550 l0 -30 90 0 90 0 0 30 0 30 -90 0 -90 0 0 -30z"/>
<path d="M8850 8550 l0 -30 90 0 90 0 0 30 0 30 -90 0 -90 0 0 -30z"/>
<path d="M9210 8550 l0 -30 90 0 90 0 0 30 0 30 -90 0 -90 0 0 -30z"/>
<path d="M9570 8550 l0 -30 90 0 90 0 0 30 0 30 -90 0 -90 0 0 -30z"/>
<path d="M9930 8550 l0 -30 90 0 90 0 0 30 0 30 -90 0 -90 0 0 -30z"/>
<path d="M10290 8550 l0 -30 90 0 90 0 0 30 0 30 -90 0 -90 0 0 -30z"/>
<path d="M10650 8550 l0 -30 90 0 90 0 0 30 0 30 -90 0 -90 0 0 -30z"/>
<path d="M11010 8550 l0 -30 90 0 90 0 0 30 0 30 -90 0 -90 0 0 -30z"/>
<path d="M11370 8550 l0 -30 90 0 90 0 0 30 0 30 -90 0 -90 0 0 -30z"/>
<path d="M11730 8550 l0 -30 90 0 90 0 0 30 0 30 -90 0 -90 0 0 -30z"/>
<path d="M14767 8564 c-3 -4 0 -13 8 -20 9 -10 38 -14 89 -14 69 0 76 2 76 20
0 18 -7 20 -83 20 -46 0 -86 -3 -90 -6z"/>
<path d="M15100 8550 c0 -18 7 -20 86 -20 74 0 85 2 80 16 -3 9 -6 18 -6 20 0
2 -36 4 -80 4 -73 0 -80 -2 -80 -20z"/>
<path d="M15426 8554 c-3 -9 -6 -18 -6 -20 0 -2 39 -4 86 -4 74 0 85 2 80 16
-3 9 -6 18 -6 20 0 2 -33 4 -74 4 -58 0 -75 -3 -80 -16z"/>
<path d="M15746 8554 c-3 -9 -6 -18 -6 -20 0 -2 38 -4 85 -4 78 0 85 2 85 20
0 18 -7 20 -79 20 -63 0 -80 -3 -85 -16z"/>
<path d="M16070 8550 c0 -18 7 -20 80 -20 73 0 80 2 80 20 0 18 -7 20 -80 20
-73 0 -80 -2 -80 -20z"/>
<path d="M16390 8550 c0 -18 7 -20 80 -20 73 0 80 2 80 20 0 18 -7 20 -80 20
-73 0 -80 -2 -80 -20z"/>
<path d="M16710 8550 c0 -18 7 -20 86 -20 74 0 85 2 80 16 -3 9 -6 18 -6 20 0
2 -36 4 -80 4 -73 0 -80 -2 -80 -20z"/>
<path d="M17036 8554 c-3 -9 -6 -18 -6 -20 0 -2 38 -4 85 -4 78 0 85 2 85 20
0 18 -7 20 -79 20 -63 0 -80 -3 -85 -16z"/>
<path d="M17360 8550 c0 -18 7 -20 80 -20 73 0 80 2 80 20 0 18 -7 20 -80 20
-73 0 -80 -2 -80 -20z"/>
<path d="M17680 8550 c0 -18 7 -20 80 -20 73 0 80 2 80 20 0 18 -7 20 -80 20
-73 0 -80 -2 -80 -20z"/>
<path d="M18000 8550 c0 -18 7 -20 80 -20 73 0 80 2 80 20 0 18 -7 20 -80 20
-73 0 -80 -2 -80 -20z"/>
<path d="M18320 8550 c0 -18 7 -20 86 -20 74 0 85 2 80 16 -3 9 -6 18 -6 20 0
2 -36 4 -80 4 -73 0 -80 -2 -80 -20z"/>
<path d="M18646 8554 c-3 -9 -6 -18 -6 -20 0 -2 38 -4 85 -4 78 0 85 2 85 20
0 18 -7 20 -79 20 -63 0 -80 -3 -85 -16z"/>
<path d="M12086 8535 c-13 -20 -15 -30 -7 -38 6 -6 11 -37 11 -68 0 -63 5 -71
38 -62 20 5 22 12 22 74 0 56 -4 72 -23 95 l-23 26 -18 -27z"/>
<path d="M18915 8507 c-4 -8 -5 -45 -3 -83 2 -57 6 -69 21 -72 16 -3 18 4 15
79 -2 55 -7 84 -15 87 -7 2 -15 -3 -18 -11z"/>
<path d="M294 8435 c-3 -6 -4 -47 -2 -91 l3 -79 30 0 30 0 3 86 3 87 -32 4
c-18 3 -33 0 -35 -7z"/>
<path d="M8038 8413 c-16 -4 -18 -17 -18 -94 l0 -89 30 0 31 0 -3 92 c-3 91
-7 100 -40 91z"/>
<path d="M14760 8340 c0 -73 2 -80 20 -80 18 0 20 7 20 80 0 73 -2 80 -20 80
-18 0 -20 -7 -20 -80z"/>
<path d="M3860 8250 l0 -90 30 0 30 0 0 90 0 90 -30 0 -30 0 0 -90z"/>
<path d="M12090 8101 c0 -50 4 -92 8 -95 5 -3 18 -2 30 1 21 5 22 11 22 94 l0
89 -30 0 -30 0 0 -89z"/>
<path d="M18910 8110 c0 -73 2 -80 20 -80 18 0 20 7 20 80 0 73 -2 80 -20 80
-18 0 -20 -7 -20 -80z"/>
<path d="M14760 8020 c0 -73 2 -80 20 -80 18 0 20 7 20 80 0 73 -2 80 -20 80
-18 0 -20 -7 -20 -80z"/>
<path d="M307 8083 c-16 -4 -17 -15 -15 -91 l3 -87 30 0 30 0 0 90 c0 94 -3
100 -48 88z"/>
<path d="M8020 7971 c0 -83 1 -89 22 -94 12 -3 25 -4 30 -1 4 3 8 45 8 95 l0
89 -30 0 -30 0 0 -89z"/>
<path d="M3860 7890 l0 -90 30 0 30 0 0 90 0 90 -30 0 -30 0 0 -90z"/>
<path d="M18910 7790 c0 -73 2 -80 20 -80 18 0 20 7 20 80 0 73 -2 80 -20 80
-18 0 -20 -7 -20 -80z"/>
<path d="M12090 7741 c0 -50 4 -92 8 -95 5 -3 18 -2 30 1 21 5 22 11 22 94 l0
89 -30 0 -30 0 0 -89z"/>
<path d="M14760 7700 c0 -44 2 -80 4 -80 2 0 11 -3 20 -6 14 -5 16 6 16 80 0
79 -2 86 -20 86 -18 0 -20 -7 -20 -80z"/>
<path d="M307 7723 c-16 -4 -17 -15 -15 -91 l3 -87 30 0 30 0 0 90 c0 94 -3
100 -48 88z"/>
<path d="M8020 7611 c0 -83 1 -89 22 -94 12 -3 25 -4 30 -1 4 3 8 45 8 95 l0
89 -30 0 -30 0 0 -89z"/>
<path d="M3860 7530 l0 -90 30 0 30 0 0 90 0 90 -30 0 -30 0 0 -90z"/>
<path d="M18910 7470 c0 -73 2 -80 20 -80 18 0 20 7 20 80 0 73 -2 80 -20 80
-18 0 -20 -7 -20 -80z"/>
<path d="M12090 7381 c0 -50 4 -92 8 -95 5 -3 18 -2 30 1 21 5 22 11 22 94 l0
89 -30 0 -30 0 0 -89z"/>
<path d="M14760 7380 c0 -44 2 -80 4 -80 2 0 11 -3 20 -6 14 -5 16 6 16 80 0
79 -2 86 -20 86 -18 0 -20 -7 -20 -80z"/>
<path d="M307 7363 c-16 -4 -17 -15 -15 -91 l3 -87 30 0 30 0 0 90 c0 94 -3
100 -48 88z"/>
<path d="M8020 7251 c0 -83 1 -89 22 -94 12 -3 25 -4 30 -1 4 3 8 45 8 95 l0
89 -30 0 -30 0 0 -89z"/>
<path d="M3860 7170 l0 -90 30 0 30 0 0 90 0 90 -30 0 -30 0 0 -90z"/>
<path d="M18914 7217 c-3 -8 -4 -45 -2 -83 2 -53 6 -69 18 -69 12 0 16 17 18
83 2 69 0 82 -13 82 -9 0 -18 -6 -21 -13z"/>
<path d="M14773 7133 c-9 -3 -13 -30 -13 -84 0 -72 2 -79 20 -79 18 0 20 7 20
85 0 47 -3 85 -7 84 -5 0 -14 -3 -20 -6z"/>
<path d="M12090 7020 l0 -90 30 0 30 0 0 90 0 90 -30 0 -30 0 0 -90z"/>
<path d="M307 7003 c-16 -4 -17 -15 -15 -91 l3 -87 30 0 30 0 0 90 c0 94 -3
100 -48 88z"/>
<path d="M8020 6891 c0 -83 1 -89 22 -94 12 -3 25 -4 30 -1 4 3 8 45 8 95 l0
89 -30 0 -30 0 0 -89z"/>
<path d="M18915 6897 c-4 -8 -5 -45 -3 -83 2 -57 6 -69 21 -72 16 -3 18 4 15
79 -2 55 -7 84 -15 87 -7 2 -15 -3 -18 -11z"/>
<path d="M3860 6810 l0 -90 30 0 30 0 0 90 0 90 -30 0 -30 0 0 -90z"/>
<path d="M14760 6730 c0 -73 2 -80 20 -80 18 0 20 7 20 80 0 73 -2 80 -20 80
-18 0 -20 -7 -20 -80z"/>
<path d="M12090 6660 l0 -90 30 0 30 0 0 90 0 90 -30 0 -30 0 0 -90z"/>
<path d="M297 6644 c-4 -4 -7 -44 -7 -90 0 -80 1 -82 26 -88 15 -4 31 -3 36 2
5 5 8 47 6 93 -3 82 -4 84 -28 87 -14 2 -29 0 -33 -4z"/>
<path d="M5280 6535 c0 -96 3 -115 15 -115 11 0 15 12 15 45 0 41 2 45 24 45
31 0 78 18 88 33 4 7 8 26 8 44 0 43 -30 63 -97 63 l-53 0 0 -115z m114 63
c17 -27 -5 -52 -48 -56 l-36 -3 0 41 0 41 36 -3 c22 -2 42 -10 48 -20z"/>
<path d="M5470 6535 l0 -115 70 0 c56 0 70 3 70 15 0 11 -12 15 -50 15 l-50 0
0 35 c0 35 0 35 45 35 33 0 45 4 45 15 0 11 -12 15 -45 15 -45 0 -45 0 -45 35
l0 35 50 0 c38 0 50 4 50 15 0 12 -14 15 -70 15 l-70 0 0 -115z"/>
<path d="M5640 6635 c0 -10 11 -15 35 -15 l35 0 0 -100 c0 -82 3 -100 15 -100
12 0 15 18 15 100 l0 100 40 0 c29 0 40 4 40 15 0 12 -17 15 -90 15 -73 0 -90
-3 -90 -15z"/>
<path d="M5850 6535 c0 -108 1 -115 20 -115 19 0 20 7 20 115 0 108 -1 115
-20 115 -19 0 -20 -7 -20 -115z"/>
<path d="M5968 6621 c-30 -27 -33 -35 -33 -86 0 -51 3 -59 33 -86 43 -39 111
-41 147 -4 27 26 31 40 16 50 -6 3 -15 -3 -20 -13 -17 -32 -64 -46 -98 -30
-72 35 -64 160 12 168 41 4 57 -1 80 -26 22 -24 25 -25 32 -9 11 30 -39 65
-92 65 -35 0 -52 -6 -77 -29z"/>
<path d="M6190 6535 c0 -96 3 -115 15 -115 12 0 15 19 15 115 0 96 -3 115 -15
115 -12 0 -15 -19 -15 -115z"/>
<path d="M6322 6637 c-62 -35 -75 -131 -23 -186 25 -27 36 -31 81 -31 45 0 56
4 81 31 35 38 42 97 16 147 -23 47 -104 67 -155 39z m116 -40 c25 -23 30 -90
8 -119 -20 -27 -62 -39 -93 -27 -37 14 -52 38 -53 85 0 30 6 46 23 61 41 38
73 38 115 0z"/>
<path d="M6540 6535 c0 -94 3 -115 15 -115 11 0 15 19 17 92 l3 92 60 -92 c84
-128 95 -126 95 23 0 94 -3 115 -15 115 -11 0 -15 -19 -17 -87 l-3 -86 -58 86
c-40 61 -63 87 -77 87 -19 0 -20 -7 -20 -115z"/>
<path d="M8020 6531 c0 -83 1 -89 22 -94 12 -3 25 -4 30 -1 4 3 8 45 8 95 l0
89 -30 0 -30 0 0 -89z"/>
<path d="M18910 6500 c0 -73 2 -80 20 -80 18 0 20 7 20 80 0 73 -2 80 -20 80
-18 0 -20 -7 -20 -80z"/>
<path d="M3867 6543 c-4 -3 -7 -46 -7 -95 l0 -88 30 0 30 0 0 89 c0 72 -3 90
-16 95 -20 8 -29 8 -37 -1z"/>
<path d="M16015 6506 c-61 -19 -97 -41 -137 -83 -50 -52 -77 -109 -89 -185 -6
-39 -9 -417 -7 -998 l3 -935 28 -60 c36 -78 85 -127 161 -162 l61 -28 618 -3
617 -3 0 51 0 50 -607 0 c-567 0 -611 2 -648 19 -52 23 -111 90 -125 140 -7
27 -10 339 -8 999 l3 959 30 49 c23 37 44 56 84 77 l55 27 965 0 966 0 50 -23
c54 -26 98 -78 115 -138 6 -19 10 -194 10 -406 l0 -373 45 0 46 0 -3 408 c-3
404 -3 407 -26 452 -33 63 -96 125 -156 152 l-51 23 -980 2 c-771 1 -989 -1
-1020 -11z"/>
<path d="M14760 6410 c0 -73 2 -80 20 -80 18 0 20 7 20 80 0 73 -2 80 -20 80
-18 0 -20 -7 -20 -80z"/>
<path d="M12090 6300 l0 -90 30 0 30 0 0 90 0 90 -30 0 -30 0 0 -90z"/>
<path d="M297 6284 c-4 -4 -7 -44 -7 -90 0 -80 1 -82 26 -88 15 -4 31 -3 36 2
5 5 8 47 6 93 -3 82 -4 84 -28 87 -14 2 -29 0 -33 -4z"/>
<path d="M1254 6255 c-54 -37 -54 -34 -54 -689 l0 -606 910 0 910 0 0 593 c0
373 -4 606 -10 629 -6 20 -24 48 -41 62 l-31 26 -832 0 c-714 0 -835 -2 -852
-15z m590 -330 c17 -18 14 -30 -26 -98 -15 -26 -34 -61 -43 -77 l-16 -30 30 0
c23 0 30 5 33 21 4 31 32 46 52 30 9 -8 16 -22 16 -32 0 -10 9 -19 21 -21 48
-7 51 -68 4 -68 -22 0 -25 -4 -25 -34 0 -31 -20 -66 -39 -66 -17 0 -31 27 -31
62 l0 38 -74 0 c-103 0 -104 9 -25 147 85 148 93 157 123 128z m331 1 c18 -8
38 -23 44 -34 14 -27 14 -267 0 -294 -25 -47 -139 -63 -196 -28 -40 24 -53 67
-53 175 0 108 13 151 53 175 38 24 104 26 152 6z m263 2 c19 -19 15 -37 -33
-119 -25 -43 -45 -81 -45 -84 0 -3 13 -5 29 -5 25 0 30 4 33 28 5 41 45 44 61
3 6 -17 20 -32 33 -35 43 -11 37 -66 -7 -66 -13 0 -19 -7 -19 -22 0 -57 -22
-84 -55 -72 -10 4 -15 20 -15 50 l0 43 -77 3 c-65 3 -78 6 -81 21 -4 17 121
246 142 259 15 10 20 10 34 -4z m-598 -633 c0 -3 -25 -43 -57 -90 l-56 -85
-74 0 c-40 0 -73 2 -73 5 0 3 25 43 57 90 l56 85 74 0 c40 0 73 -2 73 -5z
m260 -85 l-61 -90 -75 0 c-57 0 -73 3 -68 13 4 6 32 47 61 90 l54 77 75 0 75
0 -61 -90z m353 61 c-10 -15 -36 -56 -58 -89 l-40 -62 -72 0 c-40 0 -73 2 -73
5 0 3 25 43 57 90 l56 85 74 0 75 0 -19 -29z m259 12 c13 -12 18 -31 18 -71 0
-82 -13 -92 -122 -92 l-89 0 61 90 c51 75 65 90 87 90 15 0 35 -7 45 -17z"/>
<path d="M2055 5857 c-3 -7 -4 -62 -3 -123 l3 -109 50 0 50 0 0 120 0 120 -48
3 c-33 2 -49 -1 -52 -11z"/>
<path d="M8020 6170 l0 -90 30 0 30 0 0 90 0 90 -30 0 -30 0 0 -90z"/>
<path d="M18910 6180 c0 -73 2 -80 20 -80 18 0 20 7 20 80 0 73 -2 80 -20 80
-18 0 -20 -7 -20 -80z"/>
<path d="M17497 6214 c-11 -11 -8 -464 3 -505 12 -43 43 -62 96 -57 36 3 39 6
42 35 2 24 -1 33 -17 38 -20 6 -21 15 -23 248 l-3 242 -45 3 c-25 2 -49 0 -53
-4z"/>
<path d="M3867 6183 c-4 -3 -7 -46 -7 -95 l0 -88 30 0 c17 0 30 5 30 13 0 9
397 11 1960 9 1078 -1 1960 -5 1960 -8 0 -3 -7 -18 -15 -34 -9 -17 -13 -30
-10 -30 10 0 187 91 184 94 -2 2 -46 25 -97 50 l-93 47 21 -41 20 -40 -1965
-2 -1965 -3 0 61 c0 47 -4 63 -16 68 -20 8 -29 8 -37 -1z"/>
<path d="M16194 6176 c-43 -19 -92 -82 -109 -140 -32 -108 -11 -258 47 -331
50 -63 159 -83 238 -42 82 41 120 125 120 261 0 125 -52 225 -133 255 -39 15
-126 13 -163 -3z m138 -85 c33 -26 48 -82 48 -179 0 -89 -20 -156 -51 -172
-10 -6 -34 -10 -53 -10 -42 0 -72 27 -86 79 -13 48 -13 162 1 217 19 76 87
107 141 65z"/>
<path d="M14760 6090 c0 -73 2 -80 20 -80 18 0 20 7 20 80 0 73 -2 80 -20 80
-18 0 -20 -7 -20 -80z"/>
<path d="M14580 6070 l20 -40 -1255 0 -1255 0 0 -90 0 -90 30 0 30 0 0 70 0
70 1225 0 1225 0 -20 -40 -20 -40 95 47 c52 26 95 50 95 53 0 3 -43 27 -95 53
l-95 47 20 -40z"/>
<path d="M16890 6037 c-31 -10 -35 -17 -38 -49 l-3 -37 33 10 c45 13 102 11
116 -3 7 -7 12 -29 12 -50 0 -39 0 -39 -34 -32 -47 8 -101 -11 -126 -46 -24
-33 -26 -98 -5 -139 27 -52 103 -64 148 -23 17 15 19 15 28 -1 7 -12 22 -17
49 -17 l40 0 0 150 c0 170 -10 209 -59 234 -35 19 -111 20 -161 3z m120 -260
c0 -37 -4 -46 -25 -55 -32 -15 -31 -15 -49 4 -36 36 -9 94 45 94 28 0 29 -2
29 -43z"/>
<path d="M17762 6030 c-100 -63 -101 -313 0 -366 39 -21 141 -24 176 -5 16 9
22 21 22 46 0 33 -1 34 -26 25 -29 -11 -84 -13 -109 -4 -17 7 -45 54 -45 78 0
12 18 16 93 18 l92 3 3 50 c7 108 -33 166 -120 172 -41 3 -61 -1 -86 -17z
m106 -62 c7 -7 12 -29 12 -50 l0 -38 -51 0 -52 0 6 36 c3 20 11 42 18 50 14
17 51 18 67 2z"/>
<path d="M16580 5845 l0 -195 55 0 55 0 0 144 c0 80 4 147 9 150 5 3 28 8 52
10 44 4 44 4 47 45 3 41 3 41 -31 41 -19 0 -46 -9 -60 -20 -14 -11 -27 -20
-30 -20 -3 0 -7 9 -10 20 -4 16 -14 20 -46 20 l-41 0 0 -195z"/>
<path d="M17259 6017 c-52 -34 -74 -88 -74 -177 0 -127 48 -192 141 -192 76 1
104 15 104 53 l0 32 -45 -6 c-37 -6 -49 -3 -72 17 -23 20 -27 32 -30 87 -3 48
1 73 14 99 17 33 20 35 71 35 52 -1 52 -1 52 31 0 37 -12 44 -79 44 -33 0 -59
-7 -82 -23z"/>
<path d="M18910 5860 c0 -73 2 -80 20 -80 18 0 20 7 20 80 0 73 -2 80 -20 80
-18 0 -20 -7 -20 -80z"/>
<path d="M297 5924 c-4 -4 -7 -44 -7 -90 0 -80 1 -82 26 -88 15 -4 31 -3 36 2
5 5 8 47 6 93 -3 82 -4 84 -28 87 -14 2 -29 0 -33 -4z"/>
<path d="M8020 5810 l0 -90 30 0 30 0 0 90 0 90 -30 0 -30 0 0 -90z"/>
<path d="M14760 5770 c0 -44 2 -80 4 -80 2 0 11 -3 20 -6 14 -5 16 6 16 80 0
79 -2 86 -20 86 -18 0 -20 -7 -20 -80z"/>
<path d="M3867 5823 c-4 -3 -7 -46 -7 -95 l0 -88 30 0 30 0 0 89 c0 72 -3 90
-16 95 -20 8 -29 8 -37 -1z"/>
<path d="M9090 5585 c0 -96 3 -115 15 -115 11 0 15 12 15 44 l0 43 46 6 c51 5
70 19 79 59 5 21 1 33 -19 52 -21 22 -34 26 -81 26 l-55 0 0 -115z m104 79
c20 -8 21 -48 2 -63 -8 -7 -27 -11 -43 -9 -24 3 -28 8 -31 41 -3 35 -2 37 27
37 16 0 36 -3 45 -6z"/>
<path d="M9280 5585 c0 -108 1 -115 20 -115 17 0 20 7 20 45 0 37 3 45 18 45
11 0 26 -16 40 -45 15 -32 28 -45 42 -45 20 0 20 2 -6 45 l-26 45 26 21 c32
25 35 70 6 99 -16 16 -33 20 -80 20 l-60 0 0 -115z m118 73 c28 -28 -1 -68
-49 -68 -27 0 -29 2 -29 40 0 39 1 40 33 40 18 0 38 -5 45 -12z"/>
<path d="M9508 5671 c-30 -27 -33 -35 -33 -86 0 -51 3 -59 33 -86 25 -23 42
-29 77 -29 35 0 52 6 77 29 30 27 33 35 33 86 0 51 -3 59 -33 86 -25 23 -42
29 -77 29 -35 0 -52 -6 -77 -29z m139 -23 c12 -13 18 -36 18 -64 0 -56 -27
-86 -80 -86 -53 0 -80 30 -80 86 0 29 6 51 19 64 31 35 91 35 123 0z"/>
<path d="M9737 5633 c14 -38 32 -87 40 -111 14 -40 36 -62 49 -49 3 2 25 55
49 116 38 97 41 111 25 111 -13 0 -26 -23 -50 -91 -22 -60 -36 -86 -41 -77 -5
7 -21 48 -36 91 -20 55 -32 77 -45 77 -15 0 -14 -7 9 -67z"/>
<path d="M9950 5585 l0 -115 70 0 c56 0 70 3 70 15 0 12 -13 15 -55 15 l-55 0
0 35 0 35 50 0 c38 0 50 4 50 15 0 11 -12 15 -50 15 l-50 0 0 35 0 35 55 0
c42 0 55 3 55 15 0 12 -14 15 -70 15 l-70 0 0 -115z"/>
<path d="M10140 5584 l0 -116 65 4 c54 3 70 9 91 30 36 36 42 101 15 146 -25
39 -55 52 -122 52 l-49 0 0 -116z m120 76 c28 -15 43 -69 29 -108 -13 -38 -35
-52 -83 -52 l-36 0 0 85 0 85 36 0 c19 0 44 -4 54 -10z"/>
<path d="M10394 5666 c-28 -28 -34 -42 -34 -76 0 -77 43 -120 119 -120 75 0
125 74 102 151 -16 52 -53 79 -108 79 -38 0 -50 -5 -79 -34z m147 -28 c26 -48
9 -115 -33 -132 -39 -17 -74 -9 -98 22 -38 48 -12 135 43 144 32 5 76 -11 88
-34z"/>
<path d="M10630 5585 c0 -96 3 -115 15 -115 11 0 15 12 15 45 0 38 3 45 20 45
12 0 29 -16 46 -45 14 -25 32 -45 40 -45 18 0 18 3 -6 50 l-20 39 25 25 c30
31 32 55 4 90 -18 23 -28 26 -80 26 l-59 0 0 -115z m120 66 c13 -26 3 -50 -25
-57 -44 -11 -60 -1 -63 39 l-3 37 40 0 c30 0 43 -5 51 -19z"/>
<path d="M10910 5585 l0 -115 56 0 c90 0 133 35 134 107 0 87 -39 123 -135
123 l-55 0 0 -115z m139 59 c12 -15 21 -41 21 -59 0 -50 -33 -85 -81 -85 l-39
0 0 85 0 85 39 0 c31 0 44 -6 60 -26z"/>
<path d="M11150 5585 l0 -115 70 0 c56 0 70 3 70 15 0 12 -13 15 -55 15 l-55
0 0 35 0 35 50 0 c38 0 50 4 50 15 0 11 -12 15 -50 15 l-50 0 0 35 0 35 55 0
c42 0 55 3 55 15 0 12 -14 15 -70 15 l-70 0 0 -115z"/>
<path d="M12090 5580 l0 -90 30 0 30 0 0 90 0 90 -30 0 -30 0 0 -90z"/>
<path d="M18914 5607 c-3 -8 -4 -45 -2 -83 2 -53 6 -69 18 -69 12 0 16 17 18
83 2 69 0 82 -13 82 -9 0 -18 -6 -21 -13z"/>
<path d="M297 5564 c-4 -4 -7 -44 -7 -90 0 -80 1 -82 26 -88 15 -4 31 -3 36 2
5 5 8 47 6 93 -3 82 -4 84 -28 87 -14 2 -29 0 -33 -4z"/>
<path d="M8020 5450 l0 -90 30 0 30 0 0 90 0 90 -30 0 -30 0 0 -90z"/>
<path d="M14773 5523 c-9 -3 -13 -30 -13 -84 0 -72 2 -79 20 -79 18 0 20 7 20
85 0 47 -3 85 -7 84 -5 0 -14 -3 -20 -6z"/>
<path d="M17623 5509 c-148 -19 -252 -60 -313 -124 l-35 -36 -3 -537 c-1 -295
0 -547 3 -559 14 -59 109 -124 231 -158 92 -26 349 -32 453 -11 128 26 190 53
242 105 41 40 48 53 54 101 3 30 5 276 3 545 -3 473 -4 491 -23 525 -67 114
-351 183 -612 149z m392 -119 c151 -47 183 -98 95 -152 -69 -42 -150 -59 -301
-65 -198 -8 -341 23 -413 88 -36 32 -31 49 24 87 75 51 194 72 380 68 114 -3
160 -9 215 -26z m-550 -270 c188 -68 431 -67 619 4 37 14 72 26 77 26 5 0 9
-47 9 -104 0 -122 -10 -140 -91 -175 -81 -35 -174 -51 -307 -51 -182 0 -313
32 -379 93 -21 19 -23 29 -23 130 0 99 2 109 18 104 9 -3 44 -15 77 -27z m-21
-344 c184 -73 441 -75 633 -5 103 37 93 44 93 -64 0 -53 -4 -106 -9 -119 -5
-13 -31 -36 -57 -50 -178 -96 -564 -87 -701 18 l-33 25 0 110 c0 60 3 109 7
109 3 0 34 -11 67 -24z m61 -367 c194 -60 443 -43 648 46 15 6 17 -1 17 -80 0
-85 -1 -88 -33 -120 -84 -84 -374 -118 -585 -70 -75 18 -157 58 -172 84 -5 11
-10 58 -10 105 l0 86 38 -16 c20 -9 64 -25 97 -35z"/>
<path d="M3867 5463 c-4 -3 -7 -46 -7 -95 l0 -88 30 0 30 0 0 89 c0 72 -3 90
-16 95 -20 8 -29 8 -37 -1z"/>
<path d="M12090 5220 l0 -90 30 0 30 0 0 90 0 90 -30 0 -30 0 0 -90z"/>
<path d="M18915 5287 c-4 -8 -5 -45 -3 -83 2 -57 6 -69 21 -72 16 -3 18 4 15
79 -2 55 -7 84 -15 87 -7 2 -15 -3 -18 -11z"/>
<path d="M297 5204 c-4 -4 -7 -44 -7 -90 0 -80 1 -82 26 -88 15 -4 31 -3 36 2
5 5 8 47 6 93 -3 82 -4 84 -28 87 -14 2 -29 0 -33 -4z"/>
<path d="M9090 5095 c0 -96 3 -115 15 -115 11 0 15 12 15 44 l0 43 46 6 c51 5
70 19 79 59 5 21 1 33 -19 52 -21 22 -34 26 -81 26 l-55 0 0 -115z m104 79
c20 -8 21 -48 2 -63 -8 -7 -27 -11 -43 -9 -24 3 -28 8 -31 41 -3 35 -2 37 27
37 16 0 36 -3 45 -6z"/>
<path d="M9280 5095 l0 -115 70 0 c56 0 70 3 70 15 0 11 -12 15 -50 15 l-50 0
0 35 c0 35 0 35 45 35 33 0 45 4 45 15 0 11 -12 15 -45 15 -45 0 -45 0 -45 35
l0 35 50 0 c38 0 50 4 50 15 0 12 -14 15 -70 15 l-70 0 0 -115z"/>
<path d="M9470 5095 c0 -108 1 -115 20 -115 17 0 19 8 22 87 l3 86 58 -86 c78
-119 87 -116 87 28 0 96 -3 115 -15 115 -12 0 -15 -16 -15 -87 l0 -88 -56 88
c-45 70 -60 87 -80 87 -24 0 -24 0 -24 -115z"/>
<path d="M9735 5190 c-38 -42 -7 -110 50 -110 22 0 55 -23 55 -38 0 -15 -16
-30 -37 -36 -17 -5 -29 -1 -48 18 -31 31 -45 33 -45 7 0 -48 101 -70 140 -31
42 42 19 88 -55 112 -48 15 -60 49 -24 68 18 10 26 8 51 -10 38 -28 61 -13 29
19 -28 28 -91 29 -116 1z"/>
<path d="M9976 5202 c-6 -10 -86 -211 -86 -217 0 -3 7 -5 16 -5 8 0 20 14 25
30 10 28 14 30 64 30 50 0 54 -2 64 -30 9 -26 41 -44 41 -23 0 4 -19 56 -42
115 -31 78 -48 108 -60 108 -9 0 -19 -3 -22 -8z m53 -119 c1 -8 -12 -13 -34
-13 -40 0 -40 0 -18 59 l17 44 17 -39 c10 -21 18 -45 18 -51z"/>
<path d="M10140 5096 c0 -95 3 -116 15 -116 11 0 15 19 17 86 l3 86 35 -83
c20 -47 42 -85 51 -87 11 -2 28 24 56 85 l41 88 1 -87 c1 -71 4 -88 16 -88 12
0 15 19 15 115 0 113 0 115 -23 115 -19 0 -29 -14 -62 -90 -21 -50 -40 -88
-43 -85 -3 3 -22 42 -42 88 -28 62 -42 83 -58 85 -22 3 -22 1 -22 -112z"/>
<path d="M10440 5095 c0 -108 1 -115 20 -115 19 0 20 7 20 115 0 108 -1 115
-20 115 -19 0 -20 -7 -20 -115z"/>
<path d="M10540 5095 l0 -115 70 0 c56 0 70 3 70 15 0 12 -13 15 -55 15 l-55
0 0 35 0 35 50 0 c38 0 50 4 50 15 0 11 -12 15 -50 15 l-50 0 0 35 0 35 55 0
c42 0 55 3 55 15 0 12 -14 15 -70 15 l-70 0 0 -115z"/>
<path d="M10720 5095 c0 -108 1 -115 20 -115 17 0 19 8 22 87 l3 86 58 -86
c78 -119 87 -116 87 28 0 96 -3 115 -15 115 -12 0 -15 -16 -15 -87 l0 -88 -56
88 c-45 70 -60 87 -80 87 -24 0 -24 0 -24 -115z"/>
<path d="M10950 5195 c0 -10 11 -15 35 -15 l35 0 0 -100 c0 -82 3 -100 15
-100 12 0 15 18 15 100 l0 100 40 0 c29 0 40 4 40 15 0 12 -17 15 -90 15 -73
0 -90 -3 -90 -15z"/>
<path d="M11187 5190 c-37 -29 -52 -83 -38 -131 16 -53 52 -79 110 -79 72 1
111 42 111 120 0 34 -6 48 -34 76 -29 29 -41 34 -79 34 -29 0 -53 -7 -70 -20z
m133 -38 c39 -49 13 -133 -44 -144 -41 -8 -86 17 -92 51 -4 17 -6 33 -6 36 0
39 15 67 43 79 40 17 75 10 99 -22z"/>
<path d="M14760 5120 c0 -73 2 -80 20 -80 18 0 20 7 20 80 0 73 -2 80 -20 80
-18 0 -20 -7 -20 -80z"/>
<path d="M8020 5090 l0 -90 30 0 30 0 0 90 0 90 -30 0 -30 0 0 -90z"/>
<path d="M3867 5103 c-11 -10 -8 -171 3 -178 6 -3 19 -3 30 0 18 6 20 15 20
90 0 66 -3 84 -16 89 -20 8 -29 8 -37 -1z"/>
<path d="M18915 4967 c-4 -8 -5 -45 -3 -83 2 -57 6 -69 21 -72 16 -3 18 4 15
79 -2 55 -7 84 -15 87 -7 2 -15 -3 -18 -11z"/>
<path d="M12090 4860 c0 -89 0 -90 25 -90 13 0 67 -22 118 -50 52 -27 97 -50
101 -50 3 0 0 13 -9 30 -8 16 -15 33 -15 37 0 4 551 8 1225 8 973 0 1225 -3
1225 -12 0 -7 9 -13 20 -13 18 0 20 7 20 80 0 73 -2 80 -20 80 -17 0 -20 -7
-20 -52 l0 -53 -1222 3 c-672 1 -1223 4 -1226 6 -2 2 4 18 12 35 9 16 16 33
16 36 0 3 -40 -15 -90 -40 -49 -25 -92 -45 -95 -45 -3 0 -5 41 -5 90 l0 90
-30 0 -30 0 0 -90z"/>
<path d="M290 4760 l0 -90 35 0 35 0 0 90 0 90 -35 0 -35 0 0 -90z"/>
<path d="M8020 4730 l0 -90 30 0 30 0 0 90 0 90 -30 0 -30 0 0 -90z"/>
<path d="M4022 4732 l-92 -47 95 -48 96 -47 -16 29 c-8 17 -15 35 -15 40 0 8
602 12 1958 13 1732 3 1957 5 1957 18 0 13 -224 15 -1957 14 -1161 -1 -1958 3
-1958 8 0 5 7 22 15 38 9 17 14 30 13 29 -2 0 -45 -21 -96 -47z"/>
<path d="M3860 4661 c0 -93 6 -107 40 -96 18 6 20 15 20 96 l0 89 -30 0 -30 0
0 -89z"/>
<path d="M9090 4616 l0 -116 61 0 c56 0 64 3 95 34 29 29 34 41 34 80 0 36 -6
52 -29 78 -25 29 -35 32 -95 36 l-66 4 0 -116z m131 65 c19 -15 24 -29 24 -66
0 -58 -27 -85 -86 -85 l-39 0 0 85 0 85 39 0 c23 0 48 -8 62 -19z"/>
<path d="M9320 4615 l0 -115 70 0 c56 0 70 3 70 15 0 11 -12 15 -50 15 l-50 0
0 35 c0 35 0 35 45 35 33 0 45 4 45 15 0 11 -12 15 -45 15 -45 0 -45 0 -45 35
l0 35 50 0 c38 0 50 4 50 15 0 12 -14 15 -70 15 l-70 0 0 -115z"/>
<path d="M9590 4615 l0 -115 70 0 c56 0 70 3 70 15 0 11 -12 15 -50 15 l-50 0
0 100 c0 93 -1 100 -20 100 -19 0 -20 -7 -20 -115z"/>
<path d="M9770 4615 l0 -115 70 0 c56 0 70 3 70 15 0 12 -13 15 -55 15 l-55 0
0 35 0 35 50 0 c38 0 50 4 50 15 0 11 -12 15 -50 15 l-50 0 0 35 0 35 55 0
c42 0 55 3 55 15 0 12 -14 15 -70 15 l-70 0 0 -115z"/>
<path d="M9960 4615 c0 -94 3 -115 15 -115 11 0 15 19 17 92 l3 92 60 -92 c84
-128 95 -126 95 23 0 96 -3 115 -15 115 -12 0 -15 -16 -15 -87 l0 -88 -58 87
c-43 67 -62 88 -79 88 -23 0 -23 -2 -23 -115z"/>
<path d="M10237 4710 c-54 -43 -54 -147 0 -189 32 -26 99 -28 125 -4 17 15 18
15 18 0 0 -10 7 -17 15 -17 12 0 15 13 15 55 l0 55 -55 0 c-42 0 -55 -3 -55
-15 0 -11 11 -15 40 -15 38 0 40 -1 30 -20 -16 -30 -53 -41 -90 -29 -37 13
-50 36 -50 87 0 75 88 114 135 59 12 -13 26 -22 33 -19 18 6 15 17 -14 46 -35
34 -108 37 -147 6z"/>
<path d="M10452 4636 c4 -114 17 -136 84 -136 67 0 84 29 84 141 0 72 -3 89
-15 89 -12 0 -15 -16 -15 -83 0 -53 -5 -90 -13 -101 -15 -20 -62 -25 -80 -7
-6 6 -13 51 -15 101 -4 71 -8 90 -19 90 -12 0 -14 -16 -11 -94z"/>
<path d="M10721 4708 c-5 -13 -25 -63 -45 -112 -20 -50 -36 -91 -36 -93 0 -2
7 -3 16 -3 9 0 21 14 27 30 11 28 15 30 65 30 50 0 54 -2 63 -30 7 -18 18 -30
29 -30 16 0 12 14 -28 115 -35 88 -50 115 -64 115 -10 0 -22 -10 -27 -22z m39
-43 c5 -14 13 -37 16 -50 6 -23 3 -25 -31 -25 -26 0 -36 4 -32 13 2 6 10 29
18 50 7 20 14 37 16 37 2 0 8 -11 13 -25z"/>
<path d="M10978 4633 c-3 -94 -4 -98 -26 -101 -28 -4 -52 14 -52 40 0 24 -24
19 -28 -6 -2 -9 4 -28 12 -41 21 -31 84 -35 109 -7 23 26 25 212 2 212 -11 0
-15 -20 -17 -97z"/>
<path d="M11070 4615 l0 -115 70 0 c56 0 70 3 70 15 0 12 -13 15 -55 15 l-55
0 0 35 0 35 50 0 c38 0 50 4 50 15 0 11 -12 15 -50 15 l-50 0 0 35 0 35 55 0
c42 0 55 3 55 15 0 12 -14 15 -70 15 l-70 0 0 -115z"/>
<path d="M18910 4570 c0 -73 2 -80 20 -80 18 0 20 7 20 80 0 73 -2 80 -20 80
-18 0 -20 -7 -20 -80z"/>
<path d="M12090 4500 l0 -90 30 0 30 0 0 90 0 90 -30 0 -30 0 0 -90z"/>
<path d="M14760 4480 c0 -73 2 -80 20 -80 18 0 20 7 20 80 0 73 -2 80 -20 80
-18 0 -20 -7 -20 -80z"/>
<path d="M290 4400 l0 -90 35 0 35 0 0 90 0 90 -35 0 -35 0 0 -90z"/>
<path d="M8020 4370 l0 -90 30 0 30 0 0 90 0 90 -30 0 -30 0 0 -90z"/>
<path d="M5160 4305 c0 -96 3 -115 15 -115 11 0 15 12 15 45 0 38 3 45 20 45
13 0 27 -14 40 -40 19 -38 44 -59 56 -48 2 3 -7 26 -21 51 -26 45 -26 45 -5
52 45 14 45 91 1 114 -11 6 -42 11 -70 11 l-51 0 0 -115z m104 79 c19 -7 21
-45 4 -62 -7 -7 -27 -12 -45 -12 -32 0 -33 1 -33 40 0 38 2 40 29 40 16 0 36
-3 45 -6z"/>
<path d="M5360 4305 l0 -115 70 0 c56 0 70 3 70 15 0 12 -13 15 -55 15 l-55 0
0 35 0 35 50 0 c38 0 50 4 50 15 0 11 -12 15 -50 15 l-50 0 0 35 0 35 55 0
c42 0 55 3 55 15 0 12 -14 15 -70 15 l-70 0 0 -115z"/>
<path d="M5560 4400 c-42 -42 -19 -88 55 -112 45 -15 58 -44 29 -65 -26 -19
-42 -16 -71 13 -33 33 -52 18 -23 -19 17 -22 30 -27 64 -27 51 0 76 22 76 68
0 35 -7 41 -70 62 -49 16 -61 38 -35 64 22 21 41 20 65 -4 23 -23 40 -26 40
-7 0 45 -93 64 -130 27z"/>
<path d="M5740 4305 c0 -96 3 -115 15 -115 11 0 15 12 15 45 0 41 2 45 24 45
31 0 78 18 88 33 4 7 8 26 8 44 0 43 -30 63 -97 63 l-53 0 0 -115z m114 63
c17 -27 -5 -52 -48 -56 l-36 -3 0 41 0 41 36 -3 c22 -2 42 -10 48 -20z"/>
<path d="M5930 4327 c0 -112 15 -137 80 -137 67 0 80 22 80 135 0 78 -3 95
-15 95 -12 0 -15 -17 -15 -90 0 -84 -1 -90 -25 -106 -23 -15 -27 -15 -50 0
-24 16 -25 22 -25 106 0 73 -3 90 -15 90 -12 0 -15 -17 -15 -93z"/>
<path d="M6150 4305 l0 -115 70 0 c56 0 70 3 70 15 0 12 -13 15 -55 15 l-55 0
0 35 0 35 50 0 c38 0 50 4 50 15 0 11 -12 15 -50 15 l-50 0 0 35 0 35 55 0
c42 0 55 3 55 15 0 12 -14 15 -70 15 l-70 0 0 -115z"/>
<path d="M6350 4400 c-42 -42 -19 -88 55 -112 45 -15 58 -44 29 -65 -26 -19
-42 -16 -71 13 -33 33 -52 18 -23 -19 17 -22 30 -27 64 -27 51 0 76 22 76 68
0 35 -7 41 -70 62 -49 16 -61 38 -35 64 22 21 41 20 65 -4 23 -23 40 -26 40
-7 0 45 -93 64 -130 27z"/>
<path d="M6500 4405 c0 -11 11 -15 40 -15 l40 0 0 -100 c0 -82 3 -100 15 -100
12 0 15 18 15 100 l0 100 40 0 c29 0 40 4 40 15 0 12 -17 15 -95 15 -78 0 -95
-3 -95 -15z"/>
<path d="M6723 4313 c-48 -121 -48 -123 -29 -123 8 0 19 14 25 30 9 28 13 30
65 30 51 0 55 -2 65 -30 5 -16 17 -30 25 -30 9 0 16 1 16 3 0 2 -20 52 -44
112 -59 148 -68 149 -123 8z m91 -11 c7 -20 4 -22 -28 -22 -41 0 -44 9 -20 66
l16 38 13 -30 c7 -17 16 -40 19 -52z"/>
<path d="M3860 4301 c0 -93 6 -107 40 -96 18 6 20 15 20 96 l0 89 -30 0 -30 0
0 -89z"/>
<path d="M18910 4250 c0 -73 2 -80 20 -80 18 0 20 7 20 80 0 73 -2 80 -20 80
-18 0 -20 -7 -20 -80z"/>
<path d="M9090 4125 c0 -94 3 -115 15 -115 11 0 15 19 17 92 l3 92 60 -92 c84
-128 95 -126 95 23 0 96 -3 115 -15 115 -12 0 -15 -16 -15 -87 l0 -88 -58 87
c-43 67 -62 88 -79 88 -23 0 -23 -2 -23 -115z"/>
<path d="M9362 4133 c-47 -121 -47 -123 -28 -123 8 0 19 14 25 30 9 28 13 30
63 30 50 0 54 -2 65 -30 6 -17 19 -30 28 -30 19 0 19 3 -34 132 -53 132 -65
131 -119 -9z m92 -11 c7 -20 4 -22 -29 -22 -34 0 -37 2 -31 25 3 13 11 37 17
52 l11 28 13 -31 c7 -17 16 -40 19 -52z"/>
<path d="M9520 4225 c0 -11 11 -15 40 -15 l40 0 0 -100 c0 -82 3 -100 15 -100
12 0 15 18 15 100 l0 100 35 0 c24 0 35 5 35 15 0 12 -17 15 -90 15 -73 0 -90
-3 -90 -15z"/>
<path d="M9732 4146 c4 -114 17 -136 84 -136 67 0 84 29 84 141 0 72 -3 89
-15 89 -12 0 -15 -16 -15 -83 0 -53 -5 -90 -13 -101 -15 -20 -62 -25 -80 -7
-6 6 -13 51 -15 101 -4 71 -8 90 -19 90 -12 0 -14 -16 -11 -94z"/>
<path d="M9950 4125 c0 -108 1 -115 20 -115 17 0 20 7 20 45 0 37 3 45 18 45
11 0 26 -16 40 -45 15 -32 28 -45 42 -45 20 0 20 2 -6 45 l-26 45 26 21 c32
25 35 70 6 99 -16 16 -33 20 -80 20 l-60 0 0 -115z m118 73 c28 -28 -1 -68
-49 -68 -27 0 -29 2 -29 40 0 39 1 40 33 40 18 0 38 -5 45 -12z"/>
<path d="M10216 4232 c-6 -10 -86 -211 -86 -217 0 -3 7 -5 16 -5 8 0 20 14 25
30 10 28 14 30 64 30 50 0 54 -2 64 -30 9 -26 41 -44 41 -23 0 4 -19 56 -42
115 -31 78 -48 108 -60 108 -9 0 -19 -3 -22 -8z m53 -119 c1 -8 -12 -13 -34
-13 -40 0 -40 0 -18 59 l17 44 17 -39 c10 -21 18 -45 18 -51z"/>
<path d="M10380 4125 l0 -115 70 0 c56 0 70 3 70 15 0 12 -13 15 -55 15 l-55
0 0 100 c0 82 -3 100 -15 100 -12 0 -15 -19 -15 -115z"/>
<path d="M14760 4160 c0 -44 2 -80 4 -80 2 0 11 -3 20 -6 14 -5 16 6 16 80 0
79 -2 86 -20 86 -18 0 -20 -7 -20 -80z"/>
<path d="M12090 4140 l0 -90 30 0 30 0 0 90 0 90 -30 0 -30 0 0 -90z"/>
<path d="M1910 4045 c0 -108 1 -115 20 -115 17 0 20 7 20 44 l0 43 42 6 c72
10 102 71 55 115 -18 17 -36 22 -80 22 l-57 0 0 -115z m120 66 c13 -25 13 -27
-6 -45 -8 -9 -29 -16 -45 -16 -27 0 -29 2 -29 40 0 39 1 40 35 40 24 0 37 -6
45 -19z"/>
<path d="M2137 4140 c-54 -43 -54 -147 0 -189 39 -32 112 -29 147 5 28 29 32
39 16 49 -6 4 -20 -5 -31 -19 -27 -35 -86 -36 -117 -3 -31 33 -30 96 1 125 32
31 89 30 114 -1 10 -13 24 -22 31 -19 18 6 15 16 -14 46 -35 34 -108 37 -147
6z"/>
<path d="M290 4040 l0 -90 35 0 35 0 0 90 0 90 -35 0 -35 0 0 -90z"/>
<path d="M8020 4010 l0 -90 30 0 30 0 0 90 0 90 -30 0 -30 0 0 -90z"/>
<path d="M3860 3941 c0 -93 6 -107 40 -96 18 6 20 15 20 96 l0 89 -30 0 -30 0
0 -89z"/>
<path d="M18914 3997 c-3 -8 -4 -45 -2 -83 2 -53 6 -69 18 -69 12 0 16 17 18
83 2 69 0 82 -13 82 -9 0 -18 -6 -21 -13z"/>
<path d="M14773 3913 c-9 -3 -13 -30 -13 -84 0 -72 2 -79 20 -79 18 0 20 7 20
85 0 47 -3 85 -7 84 -5 0 -14 -3 -20 -6z"/>
<path d="M12090 3780 l0 -90 30 0 30 0 0 90 0 90 -30 0 -30 0 0 -90z"/>
<path d="M290 3680 l0 -90 35 0 35 0 0 90 0 90 -35 0 -35 0 0 -90z"/>
<path d="M8020 3650 l0 -90 30 0 30 0 0 90 0 90 -30 0 -30 0 0 -90z"/>
<path d="M16278 3686 c-39 -13 -78 -67 -78 -110 0 -37 30 -90 61 -107 12 -6
40 -11 63 -11 33 1 47 7 70 33 22 25 25 33 15 40 -10 6 -20 1 -32 -16 -14 -19
-28 -25 -58 -25 -54 0 -79 27 -79 85 0 58 25 85 79 85 30 0 44 -6 58 -25 12
-16 22 -22 31 -16 10 6 8 15 -12 38 -29 35 -69 44 -118 29z"/>
<path d="M18182 3684 c-56 -23 -55 -93 1 -114 72 -27 77 -30 77 -50 0 -39 -71
-46 -91 -9 -11 22 -39 26 -39 6 0 -8 11 -24 24 -36 50 -47 139 -19 139 45 0
32 -34 64 -68 64 -22 0 -55 23 -55 38 1 35 53 49 79 23 24 -24 41 -27 41 -8 0
37 -62 61 -108 41z"/>
<path d="M15568 3669 c-57 -43 -55 -148 4 -192 35 -26 101 -26 136 0 60 44 61
151 3 192 -38 28 -107 27 -143 0z m129 -31 c31 -29 32 -92 1 -125 -50 -54
-138 -15 -138 61 0 77 82 116 137 64z"/>
<path d="M15800 3575 c0 -96 3 -115 15 -115 11 0 15 12 15 45 0 38 3 45 20 45
14 0 27 -14 42 -45 14 -29 29 -45 40 -45 23 0 23 3 -8 56 -20 34 -22 44 -11
44 19 0 34 18 42 52 5 21 1 33 -19 52 -21 22 -34 26 -81 26 l-55 0 0 -115z
m104 79 c22 -9 20 -51 -3 -64 -11 -5 -31 -10 -45 -10 -24 0 -26 4 -26 40 0 38
2 40 29 40 16 0 36 -3 45 -6z"/>
<path d="M16035 3623 c-70 -175 -67 -163 -47 -163 10 0 22 12 29 30 11 28 15
30 63 30 48 0 52 -2 63 -30 7 -17 19 -30 29 -30 18 0 16 8 -50 175 -30 76 -53
73 -87 -12z m64 -14 c17 -50 14 -59 -19 -59 -19 0 -30 5 -30 14 0 22 21 76 30
76 4 0 13 -14 19 -31z"/>
<path d="M16460 3575 l0 -115 70 0 c56 0 70 3 70 15 0 12 -13 15 -55 15 l-55
0 0 100 c0 82 -3 100 -15 100 -12 0 -15 -19 -15 -115z"/>
<path d="M16640 3575 l0 -115 70 0 c56 0 70 3 70 15 0 12 -13 15 -55 15 l-55
0 0 35 0 35 50 0 c38 0 50 4 50 15 0 11 -12 15 -50 15 l-50 0 0 35 0 35 55 0
c42 0 55 3 55 15 0 12 -14 15 -70 15 l-70 0 0 -115z"/>
<path d="M16910 3575 l0 -115 53 0 c69 0 112 26 128 78 26 87 -29 152 -128
152 l-53 0 0 -115z m127 63 c17 -15 23 -33 23 -62 0 -54 -30 -86 -82 -86 l-38
0 0 85 0 85 37 0 c24 0 45 -8 60 -22z"/>
<path d="M17156 3588 c-22 -57 -41 -109 -44 -115 -2 -7 3 -13 12 -13 10 0 22
13 27 30 10 28 14 30 64 30 50 0 54 -2 64 -30 9 -26 41 -44 41 -23 0 4 -19 56
-42 115 -58 145 -69 145 -122 6z m93 -25 c1 -8 -12 -13 -34 -13 -40 0 -40 0
-18 59 l17 44 17 -39 c10 -21 18 -45 18 -51z"/>
<path d="M17310 3675 c0 -11 11 -15 40 -15 l40 0 0 -100 c0 -82 3 -100 15
-100 12 0 15 18 15 100 l0 100 40 0 c29 0 40 4 40 15 0 12 -17 15 -95 15 -78
0 -95 -3 -95 -15z"/>
<path d="M17545 3623 c-70 -175 -67 -163 -47 -163 10 0 22 12 29 30 11 28 15
30 63 30 48 0 52 -2 63 -30 7 -17 19 -30 29 -30 18 0 16 8 -50 175 -30 76 -53
73 -87 -12z m64 -14 c17 -50 14 -59 -19 -59 -19 0 -30 5 -30 14 0 22 21 76 30
76 4 0 13 -14 19 -31z"/>
<path d="M17730 3575 l0 -115 59 0 c53 0 62 3 80 27 22 27 20 59 -4 78 -11 9
-10 14 1 30 37 51 -1 95 -81 95 l-55 0 0 -115z m109 67 c14 -27 -5 -52 -39
-52 -28 0 -30 3 -30 35 0 32 2 35 30 35 18 0 33 -7 39 -18z m6 -117 c0 -27 -3
-30 -37 -33 -38 -3 -38 -3 -38 33 0 36 0 36 38 33 34 -3 37 -6 37 -33z"/>
<path d="M17946 3588 c-22 -57 -41 -109 -44 -115 -2 -7 3 -13 12 -13 10 0 22
13 27 30 10 28 14 30 64 30 50 0 54 -2 64 -30 9 -26 41 -44 41 -23 0 4 -19 56
-42 115 -58 145 -69 145 -122 6z m93 -25 c1 -8 -12 -13 -34 -13 -40 0 -40 0
-18 59 l17 44 17 -39 c10 -21 18 -45 18 -51z"/>
<path d="M18340 3575 l0 -115 70 0 c56 0 70 3 70 15 0 12 -13 15 -55 15 l-55
0 0 35 0 35 50 0 c38 0 50 4 50 15 0 11 -12 15 -50 15 l-50 0 0 35 0 35 55 0
c42 0 55 3 55 15 0 12 -14 15 -70 15 l-70 0 0 -115z"/>
<path d="M18914 3677 c-3 -8 -4 -45 -2 -83 2 -53 6 -69 18 -69 12 0 16 17 18
83 2 69 0 82 -13 82 -9 0 -18 -6 -21 -13z"/>
<path d="M3860 3581 c0 -93 6 -107 40 -96 18 6 20 15 20 96 l0 89 -30 0 -30 0
0 -89z"/>
<path d="M14773 3593 c-9 -3 -13 -30 -13 -84 0 -72 2 -79 20 -79 18 0 20 7 20
85 0 47 -3 85 -7 84 -5 0 -14 -3 -20 -6z"/>
<path d="M12090 3420 l0 -90 30 0 30 0 0 90 0 90 -30 0 -30 0 0 -90z"/>
<path d="M290 3320 l0 -90 35 0 35 0 0 90 0 90 -35 0 -35 0 0 -90z"/>
<path d="M8020 3290 l0 -90 30 0 30 0 0 90 0 90 -30 0 -30 0 0 -90z"/>
<path d="M18915 3357 c-4 -8 -5 -45 -3 -83 2 -57 6 -69 21 -72 16 -3 18 4 15
79 -2 55 -7 84 -15 87 -7 2 -15 -3 -18 -11z"/>
<path d="M3860 3220 l0 -90 30 0 30 0 0 90 0 90 -30 0 -30 0 0 -90z"/>
<path d="M14760 3190 c0 -73 2 -80 20 -80 18 0 20 7 20 80 0 73 -2 80 -20 80
-18 0 -20 -7 -20 -80z"/>
<path d="M9230 2360 l0 -870 865 0 865 0 0 870 0 870 -865 0 -865 0 0 -870z
m1438 568 c17 -17 17 -609 0 -626 -7 -7 -42 -12 -85 -12 -71 0 -73 1 -73 25 0
24 3 25 60 25 l60 0 0 275 0 275 -275 0 -275 0 0 -60 0 -60 -30 0 -30 0 0 66
c0 112 -26 104 328 104 226 0 311 -3 320 -12z m-778 -228 c0 -27 3 -30 30 -30
27 0 30 3 30 30 0 27 3 30 30 30 27 0 30 -3 30 -30 0 -27 3 -30 30 -30 27 0
30 3 30 30 0 25 4 30 25 30 21 0 25 -5 25 -30 0 -28 3 -30 35 -30 32 0 35 2
35 30 0 25 4 30 25 30 21 0 25 -5 25 -30 0 -27 3 -30 30 -30 27 0 30 3 30 30
0 27 3 30 30 30 27 0 30 -3 30 -30 0 -39 41 -80 80 -80 27 0 30 -3 30 -30 0
-28 -3 -30 -35 -30 -32 0 -35 -2 -35 -30 0 -28 3 -30 35 -30 31 0 35 -3 35
-25 0 -22 -4 -25 -35 -25 -32 0 -35 -2 -35 -30 0 -28 3 -30 35 -30 32 0 35 -2
35 -30 0 -28 -3 -30 -35 -30 -32 0 -35 -2 -35 -30 0 -28 3 -30 35 -30 31 0 35
-3 35 -25 0 -22 -4 -25 -35 -25 -33 0 -35 -2 -35 -35 0 -33 2 -35 35 -35 31 0
35 -3 35 -25 0 -22 -4 -25 -34 -25 -26 0 -36 -5 -41 -20 -3 -11 -13 -20 -21
-20 -10 0 -14 -12 -14 -40 0 -38 -2 -40 -30 -40 -28 0 -30 3 -30 35 0 32 -2
35 -30 35 -28 0 -30 -3 -30 -35 0 -31 -3 -35 -25 -35 -22 0 -25 4 -25 35 0 33
-2 35 -35 35 -33 0 -35 -2 -35 -35 0 -31 -3 -35 -25 -35 -22 0 -25 4 -25 35 0
32 -2 35 -30 35 -28 0 -30 -3 -30 -35 0 -32 -2 -35 -30 -35 -28 0 -30 3 -30
35 0 32 -2 35 -30 35 -28 0 -30 -3 -30 -35 0 -31 -3 -35 -25 -35 -21 0 -25 5
-25 31 0 40 -50 89 -91 89 -24 0 -29 4 -29 25 0 22 4 25 35 25 33 0 35 2 35
35 0 33 -2 35 -35 35 -31 0 -35 3 -35 25 0 22 4 25 35 25 32 0 35 2 35 30 0
28 -3 30 -35 30 -32 0 -35 2 -35 30 0 28 3 30 35 30 32 0 35 2 35 30 0 28 -3
30 -35 30 -31 0 -35 3 -35 25 0 22 4 25 35 25 32 0 35 2 35 30 0 28 -3 30 -35
30 -32 0 -35 2 -35 30 0 27 3 30 33 30 21 0 36 7 45 20 7 11 19 20 27 20 10 0
15 11 15 35 0 31 3 35 25 35 21 0 25 -5 25 -30z m-210 -295 c0 -24 -3 -25 -55
-25 l-55 0 0 -275 0 -275 270 0 269 0 3 58 c3 54 4 57 31 60 l27 3 0 -73 c0
-44 -5 -79 -12 -86 -17 -17 -619 -17 -636 0 -16 16 -17 590 -2 619 9 16 22 19
85 19 73 0 75 -1 75 -25z"/>
<path d="M9840 2360 l0 -250 255 0 255 0 0 250 0 250 -255 0 -255 0 0 -250z"/>
<path d="M12097 3154 c-4 -4 -7 -47 -7 -96 l0 -88 30 0 30 0 0 90 c0 50 -4 90
-9 90 -5 0 -16 2 -23 5 -8 3 -17 2 -21 -1z"/>
<path d="M290 2960 l0 -90 35 0 35 0 0 90 0 90 -35 0 -35 0 0 -90z"/>
<path d="M18910 2960 c0 -73 2 -80 20 -80 18 0 20 7 20 80 0 73 -2 80 -20 80
-18 0 -20 -7 -20 -80z"/>
<path d="M8020 2930 l0 -90 30 0 30 0 0 90 0 90 -30 0 -30 0 0 -90z"/>
<path d="M3860 2860 l0 -90 30 0 30 0 0 90 0 90 -30 0 -30 0 0 -90z"/>
<path d="M14760 2870 c0 -73 2 -80 20 -80 18 0 20 7 20 80 0 73 -2 80 -20 80
-18 0 -20 -7 -20 -80z"/>
<path d="M12097 2794 c-4 -4 -7 -47 -7 -96 l0 -88 30 0 30 0 0 90 c0 50 -4 90
-9 90 -5 0 -16 2 -23 5 -8 3 -17 2 -21 -1z"/>
<path d="M18910 2640 c0 -73 2 -80 20 -80 18 0 20 7 20 80 0 73 -2 80 -20 80
-18 0 -20 -7 -20 -80z"/>
<path d="M290 2600 l0 -90 35 0 35 0 0 90 0 90 -35 0 -35 0 0 -90z"/>
<path d="M8038 2663 c-16 -4 -18 -17 -18 -94 l0 -89 30 0 31 0 -3 92 c-3 91
-7 100 -40 91z"/>
<path d="M14760 2550 c0 -44 2 -80 4 -80 2 0 11 -3 20 -6 14 -5 16 6 16 80 0
79 -2 86 -20 86 -18 0 -20 -7 -20 -80z"/>
<path d="M3860 2500 l0 -90 30 0 30 0 0 90 0 90 -30 0 -30 0 0 -90z"/>
<path d="M12097 2434 c-4 -4 -7 -47 -7 -96 l0 -88 30 0 30 0 0 90 c0 50 -4 90
-9 90 -5 0 -16 2 -23 5 -8 3 -17 2 -21 -1z"/>
<path d="M18910 2320 c0 -73 2 -80 20 -80 18 0 20 7 20 80 0 73 -2 80 -20 80
-18 0 -20 -7 -20 -80z"/>
<path d="M290 2240 l0 -90 35 0 35 0 0 90 0 90 -35 0 -35 0 0 -90z"/>
<path d="M8038 2303 c-16 -4 -18 -17 -18 -94 l0 -89 30 0 31 0 -3 92 c-3 91
-7 100 -40 91z"/>
<path d="M14760 2230 c0 -44 2 -80 4 -80 2 0 11 -3 20 -6 14 -5 16 6 16 80 0
79 -2 86 -20 86 -18 0 -20 -7 -20 -80z"/>
<path d="M3860 2140 l0 -90 30 0 30 0 0 90 0 90 -30 0 -30 0 0 -90z"/>
<path d="M12097 2074 c-4 -4 -7 -47 -7 -96 l0 -88 30 0 30 0 0 90 c0 50 -4 90
-9 90 -5 0 -16 2 -23 5 -8 3 -17 2 -21 -1z"/>
<path d="M18914 2067 c-3 -8 -4 -45 -2 -83 2 -53 6 -69 18 -69 12 0 16 17 18
83 2 69 0 82 -13 82 -9 0 -18 -6 -21 -13z"/>
<path d="M14773 1983 c-9 -3 -13 -30 -13 -84 0 -72 2 -79 20 -79 18 0 20 7 20
85 0 47 -3 85 -7 84 -5 0 -14 -3 -20 -6z"/>
<path d="M290 1880 l0 -90 35 0 35 0 0 90 0 90 -35 0 -35 0 0 -90z"/>
<path d="M8038 1943 c-16 -4 -18 -17 -18 -94 l0 -89 30 0 31 0 -3 92 c-3 91
-7 100 -40 91z"/>
<path d="M3860 1780 l0 -90 30 0 30 0 0 90 0 90 -30 0 -30 0 0 -90z"/>
<path d="M18915 1747 c-4 -8 -5 -45 -3 -83 2 -57 6 -69 21 -72 16 -3 18 4 15
79 -2 55 -7 84 -15 87 -7 2 -15 -3 -18 -11z"/>
<path d="M12097 1714 c-10 -10 -9 -172 1 -178 5 -3 18 -2 30 1 20 5 22 12 22
89 0 46 -4 84 -9 84 -5 0 -16 2 -23 5 -8 3 -17 2 -21 -1z"/>
<path d="M14760 1580 c0 -73 2 -80 20 -80 18 0 20 7 20 80 0 73 -2 80 -20 80
-18 0 -20 -7 -20 -80z"/>
<path d="M290 1520 l0 -90 35 0 35 0 0 90 0 90 -35 0 -35 0 0 -90z"/>
<path d="M8038 1583 c-16 -4 -18 -17 -18 -94 l0 -89 30 0 31 0 -3 92 c-3 91
-7 100 -40 91z"/>
<path d="M3860 1420 l0 -90 30 0 30 0 0 90 0 90 -30 0 -30 0 0 -90z"/>
<path d="M18910 1350 c0 -73 2 -80 20 -80 18 0 20 7 20 80 0 73 -2 80 -20 80
-18 0 -20 -7 -20 -80z"/>
<path d="M12090 1271 c0 -50 4 -92 8 -95 5 -3 18 -2 30 1 21 5 22 11 22 94 l0
89 -30 0 -30 0 0 -89z"/>
<path d="M14760 1260 c0 -73 2 -80 20 -80 18 0 20 7 20 80 0 73 -2 80 -20 80
-18 0 -20 -7 -20 -80z"/>
<path d="M8936 1279 c-40 -11 -65 -37 -76 -80 -13 -47 5 -105 41 -131 48 -36
128 -24 158 24 21 34 -4 47 -29 15 -28 -36 -87 -38 -118 -4 -31 33 -30 96 1
125 33 31 91 30 113 -2 9 -15 21 -22 30 -19 20 7 18 17 -11 46 -28 28 -67 37
-109 26z"/>
<path d="M10014 1279 c-47 -13 -76 -51 -82 -107 -4 -41 0 -52 23 -80 49 -59
126 -59 179 -1 25 28 28 37 24 81 -8 79 -72 126 -144 107z m87 -48 c19 -15 24
-29 24 -66 0 -56 -28 -85 -80 -85 -52 0 -80 29 -80 85 0 56 28 85 80 85 18 0
43 -9 56 -19z"/>
<path d="M10274 1279 c-47 -13 -76 -51 -82 -107 -4 -41 0 -52 23 -80 49 -59
126 -59 179 -1 25 28 28 37 24 81 -8 79 -72 126 -144 107z m87 -48 c19 -15 24
-29 24 -66 0 -56 -28 -85 -80 -85 -52 0 -80 29 -80 85 0 56 28 85 80 85 18 0
43 -9 56 -19z"/>
<path d="M9110 1165 c0 -96 3 -115 15 -115 11 0 15 12 15 50 l0 50 60 0 60 0
0 -50 c0 -38 4 -50 15 -50 12 0 15 19 15 115 0 96 -3 115 -15 115 -11 0 -15
-12 -15 -50 l0 -51 -57 3 -58 3 -3 48 c-2 33 -7 47 -18 47 -11 0 -14 -21 -14
-115z"/>
<path d="M9376 1178 c-22 -57 -41 -109 -44 -115 -2 -7 3 -13 12 -13 10 0 22
13 27 30 10 28 14 30 64 30 50 0 54 -2 64 -30 9 -26 41 -44 41 -23 0 4 -19 56
-42 115 -58 145 -69 145 -122 6z m93 -25 c1 -8 -12 -13 -34 -13 -40 0 -40 0
-18 59 l17 44 17 -39 c10 -21 18 -45 18 -51z"/>
<path d="M9530 1265 c0 -11 11 -15 40 -15 l40 0 0 -100 c0 -82 3 -100 15 -100
12 0 15 18 15 100 l0 100 40 0 c29 0 40 4 40 15 0 12 -17 15 -95 15 -78 0 -95
-3 -95 -15z"/>
<path d="M9750 1165 l0 -115 55 0 c42 0 60 5 75 20 24 24 26 57 3 82 -13 14
-14 21 -5 30 7 7 12 24 12 39 0 38 -33 59 -92 59 l-48 0 0 -115z m94 79 c19
-7 21 -35 4 -52 -7 -7 -25 -12 -40 -12 -25 0 -28 3 -28 35 0 30 3 35 24 35 13
0 31 -3 40 -6z m17 -110 c20 -24 -1 -48 -45 -52 -35 -3 -36 -2 -36 32 0 34 2
36 34 36 18 0 39 -7 47 -16z"/>
<path d="M10430 1265 c0 -11 11 -15 40 -15 l40 0 0 -100 c0 -82 3 -100 15
-100 12 0 15 18 15 100 l0 100 40 0 c29 0 40 4 40 15 0 12 -17 15 -95 15 -78
0 -95 -3 -95 -15z"/>
<path d="M307 1253 c-16 -4 -17 -15 -15 -91 l3 -87 30 0 30 0 0 90 c0 94 -3
100 -48 88z"/>
<path d="M8038 1223 c-16 -4 -18 -17 -18 -94 l0 -89 30 0 31 0 -3 92 c-3 91
-7 100 -40 91z"/>
<path d="M10617 1153 c-16 -16 -4 -23 38 -23 33 0 45 4 45 15 0 11 -11 15 -38
15 -21 0 -42 -3 -45 -7z"/>
<path d="M3860 1060 l0 -90 30 0 30 0 0 90 0 90 -30 0 -30 0 0 -90z"/>
<path d="M18910 1030 c0 -73 2 -80 20 -80 18 0 20 7 20 80 0 73 -2 80 -20 80
-18 0 -20 -7 -20 -80z"/>
<path d="M14760 940 c0 -73 2 -80 20 -80 18 0 20 7 20 80 0 73 -2 80 -20 80
-18 0 -20 -7 -20 -80z"/>
<path d="M12090 911 c0 -50 4 -92 8 -95 5 -3 18 -2 30 1 21 5 22 11 22 94 l0
89 -30 0 -30 0 0 -89z"/>
<path d="M307 893 c-16 -4 -17 -15 -15 -91 l3 -87 30 0 30 0 0 90 c0 94 -3
100 -48 88z"/>
<path d="M8020 781 c0 -83 1 -89 22 -94 12 -3 25 -4 30 -1 4 3 8 45 8 95 l0
89 -30 0 -30 0 0 -89z"/>
<path d="M8850 786 c0 -7 4 -26 9 -42 6 -16 19 -62 31 -101 30 -104 47 -99 84
20 l29 92 29 -92 c40 -131 55 -128 96 19 17 62 29 114 27 116 -14 15 -33 -15
-49 -79 -10 -41 -22 -77 -25 -81 -4 -5 -19 30 -35 77 -37 114 -54 115 -86 8
-12 -43 -25 -82 -28 -87 -5 -9 -15 22 -42 122 -6 25 -17 42 -25 42 -8 0 -15
-6 -15 -14z"/>
<path d="M9190 685 l0 -115 70 0 c56 0 70 3 70 15 0 11 -12 15 -50 15 l-50 0
0 35 c0 35 0 35 45 35 33 0 45 4 45 15 0 11 -12 15 -45 15 -45 0 -45 0 -45 35
l0 35 50 0 c38 0 50 4 50 15 0 12 -14 15 -70 15 l-70 0 0 -115z"/>
<path d="M9380 685 l0 -115 53 0 c65 0 97 20 97 60 0 16 -7 36 -17 45 -10 11
-12 19 -6 23 22 15 23 49 2 75 -18 23 -28 27 -75 27 l-54 0 0 -115z m105 50
c0 -27 -3 -30 -37 -33 -38 -3 -38 -3 -38 33 0 36 0 36 38 33 34 -3 37 -6 37
-33z m6 -81 c20 -24 -1 -48 -45 -52 -35 -3 -36 -2 -36 32 0 34 2 36 34 36 18
0 39 -7 47 -16z"/>
<path d="M3860 700 l0 -90 30 0 30 0 0 90 0 90 -30 0 -30 0 0 -90z"/>
<path d="M18910 710 c0 -73 2 -80 20 -80 18 0 20 7 20 80 0 73 -2 80 -20 80
-18 0 -20 -7 -20 -80z"/>
<path d="M14760 620 c0 -44 2 -80 4 -80 2 0 11 -3 20 -6 14 -5 16 6 16 80 0
79 -2 86 -20 86 -18 0 -20 -7 -20 -80z"/>
<path d="M12090 551 c0 -50 4 -92 8 -95 5 -3 18 -2 30 1 21 5 22 11 22 94 l0
89 -30 0 -30 0 0 -89z"/>
<path d="M306 533 c-16 -4 -18 -12 -14 -67 3 -34 13 -77 22 -95 l18 -33 23 22
c14 13 21 28 17 34 -4 6 -9 40 -12 76 -5 67 -11 74 -54 63z"/>
<path d="M8020 445 c0 -68 20 -125 43 -125 20 0 41 40 28 53 -6 6 -11 39 -11
74 l0 63 -30 0 -30 0 0 -65z"/>
<path d="M18917 463 c-9 -8 -9 -116 -1 -137 3 -9 12 -16 20 -16 11 0 14 18 14
80 0 60 -3 80 -13 80 -8 0 -17 -3 -20 -7z"/>
<path d="M3848 400 c-11 -20 -28 -33 -48 -36 -37 -8 -42 -16 -34 -49 7 -30 16
-31 69 -5 26 13 49 34 63 59 29 51 28 61 -5 61 -21 0 -33 -8 -45 -30z"/>
<path d="M14773 373 c-7 -2 -13 -18 -13 -34 l0 -29 65 0 c58 0 65 2 65 20 0
17 -7 20 -45 20 -33 0 -45 4 -45 15 0 15 -6 17 -27 8z"/>
<path d="M530 325 l0 -35 90 0 90 0 0 35 0 35 -90 0 -90 0 0 -35z"/>
<path d="M890 325 l0 -35 90 0 90 0 0 35 0 35 -90 0 -90 0 0 -35z"/>
<path d="M1250 325 l0 -35 91 0 90 0 -3 33 -3 32 -87 3 -88 3 0 -36z"/>
<path d="M1610 325 l0 -35 91 0 90 0 -3 33 -3 32 -87 3 -88 3 0 -36z"/>
<path d="M1970 325 l0 -35 91 0 90 0 -3 33 -3 32 -87 3 -88 3 0 -36z"/>
<path d="M2330 325 l0 -35 91 0 90 0 -3 33 -3 32 -87 3 -88 3 0 -36z"/>
<path d="M2690 325 l0 -35 91 0 90 0 -3 33 -3 32 -87 3 -88 3 0 -36z"/>
<path d="M3050 325 l0 -35 91 0 90 0 -3 33 -3 32 -87 3 -88 3 0 -36z"/>
<path d="M3407 353 c-3 -5 -3 -20 0 -36 l5 -27 90 0 89 0 -3 33 -3 32 -87 3
c-47 1 -89 -1 -91 -5z"/>
<path d="M8267 353 c-4 -3 -7 -19 -7 -35 l0 -28 90 0 90 0 0 35 0 35 -83 0
c-46 0 -87 -3 -90 -7z"/>
<path d="M8627 353 c-4 -3 -7 -19 -7 -35 l0 -28 90 0 90 0 0 35 0 35 -83 0
c-46 0 -87 -3 -90 -7z"/>
<path d="M8980 325 l0 -35 90 0 90 0 0 35 0 35 -90 0 -90 0 0 -35z"/>
<path d="M9340 325 l0 -35 90 0 90 0 0 35 0 35 -90 0 -90 0 0 -35z"/>
<path d="M9700 325 l0 -35 90 0 90 0 0 35 0 35 -90 0 -90 0 0 -35z"/>
<path d="M10060 325 l0 -35 90 0 90 0 0 35 0 35 -90 0 -90 0 0 -35z"/>
<path d="M10420 325 l0 -35 90 0 90 0 0 35 0 35 -90 0 -90 0 0 -35z"/>
<path d="M10780 325 l0 -35 90 0 90 0 0 35 0 35 -90 0 -90 0 0 -35z"/>
<path d="M11140 325 l0 -35 90 0 90 0 0 35 0 35 -90 0 -90 0 0 -35z"/>
<path d="M11500 325 l0 -35 90 0 90 0 0 35 0 35 -90 0 -90 0 0 -35z"/>
<path d="M11860 325 l0 -35 90 0 90 0 0 35 0 35 -90 0 -90 0 0 -35z"/>
<path d="M15050 330 c0 -18 7 -20 80 -20 73 0 80 2 80 20 0 18 -7 20 -80 20
-73 0 -80 -2 -80 -20z"/>
<path d="M15377 344 c-4 -4 -7 -14 -7 -21 0 -11 18 -13 83 -11 65 2 82 6 82
18 0 12 -16 16 -75 18 -42 1 -79 0 -83 -4z"/>
<path d="M15695 340 c-14 -22 9 -30 86 -30 71 0 80 2 77 18 -3 14 -16 17 -80
20 -45 2 -79 -1 -83 -8z"/>
<path d="M16020 330 c0 -18 7 -20 80 -20 73 0 80 2 80 20 0 18 -7 20 -80 20
-73 0 -80 -2 -80 -20z"/>
<path d="M16340 330 c0 -18 7 -20 80 -20 73 0 80 2 80 20 0 18 -7 20 -80 20
-73 0 -80 -2 -80 -20z"/>
<path d="M16667 344 c-4 -4 -7 -14 -7 -21 0 -11 18 -13 83 -11 65 2 82 6 82
18 0 12 -16 16 -75 18 -42 1 -79 0 -83 -4z"/>
<path d="M16985 340 c-14 -22 13 -31 86 -28 58 2 74 6 74 18 0 12 -16 16 -77
18 -49 2 -79 -1 -83 -8z"/>
<path d="M17305 340 c-14 -22 9 -30 86 -30 71 0 80 2 77 18 -3 14 -16 17 -80
20 -45 2 -79 -1 -83 -8z"/>
<path d="M17630 330 c0 -18 7 -20 80 -20 73 0 80 2 80 20 0 18 -7 20 -80 20
-73 0 -80 -2 -80 -20z"/>
<path d="M17950 330 c0 -18 7 -20 80 -20 73 0 80 2 80 20 0 18 -7 20 -80 20
-73 0 -80 -2 -80 -20z"/>
<path d="M18277 344 c-4 -4 -7 -14 -7 -21 0 -11 18 -13 83 -11 65 2 82 6 82
18 0 12 -16 16 -75 18 -42 1 -79 0 -83 -4z"/>
<path d="M18595 340 c-14 -22 9 -30 86 -30 71 0 80 2 77 18 -3 14 -16 17 -80
20 -45 2 -79 -1 -83 -8z"/>
</g>
</svg>
